<?xml version="1.0" encoding="utf-8"?>
<!-- Generator: Adobe Illustrator 22.1.0, SVG Export Plug-In . SVG Version: 6.00 Build 0)  -->
<svg version="1.1" id="Layer_1" xmlns="http://www.w3.org/2000/svg" xmlns:xlink="http://www.w3.org/1999/xlink" x="0px" y="0px"
	 viewBox="0 0 635 239" style="enable-background:new 0 0 635 239;" xml:space="preserve">
<style type="text/css">
	.st0{fill:#FFFFFF;}
</style>
<path d="M572,537.9h-15.1l0.5-2.9c-2.6,2.1-6,3.9-12.7,3.9c-13.1,0-19.9-10.4-19.9-21.3c0-12.4,8.7-25.7,26.4-25.7
	c6.9,0,10.9,1.8,13.2,3.6l0.7-3.4h15.1L572,537.9z M551.7,505.7c-6.7,0-10.3,5.2-10.3,10.2c0,4.4,3,8.8,9.1,8.8
	c6.7,0,10.3-5.2,10.3-10.2C560.8,510,557.9,505.7,551.7,505.7z"/>
<path d="M589.1,492.5h16.6l-0.8,4.1c2.5-2.6,6.2-4.9,14-4.9c9.8,0,16.3,5.8,16.3,16c0,1.6-0.2,3.3-0.5,5l-4.4,25.2h-17.2l4.3-24.8
	c0.2-0.9,0.2-1.7,0.2-2.6c0-4.1-2.1-7.1-6.3-7.1c-6.3,0-8.5,4.9-9.2,8.9l-4.5,25.6h-17.1L589.1,492.5z"/>
<path d="M687.2,537.9h-15.1l0.4-2.4c-2.4,2.4-5.6,3.4-10.8,3.4c-14,0-20.8-10.4-20.8-21.4c0-12.4,8.6-25.6,25.2-25.6
	c6.8,0,10.4,1.5,13.4,3.6l3.4-16.5H698L687.2,537.9z M667.6,505.7c-6.7,0-10.3,5.2-10.3,10.2c0,4.4,3,8.8,9.1,8.8
	c6.7,0,10.3-5.2,10.3-10.2C676.7,510,673.8,505.7,667.6,505.7z"/>
<text transform="matrix(1 0 0 1 448.1719 642.9434)" style="font-family:'godoRounded-L'; font-size:98.723px;">Handt</text>
<text transform="matrix(1 0 0 1 1266.1719 654.9434)" style="font-family:'godoRounded-L'; font-size:98.723px;">hyper</text>
<text transform="matrix(1 0 0 1 438.1719 779.9434)" style="font-family:'Arial-BoldMT'; font-size:98.723px;">HANDT</text>
<text transform="matrix(1 0 0 1 872.1719 899.9434)" style="font-family:'Arial-BoldMT'; font-size:98.723px;">HanDT</text>
<text transform="matrix(1 0 0 1 878.1719 1025.9434)" style="font-family:'HYPE'; font-size:98.723px;">Handt</text>
<text transform="matrix(1 0 0 1 872.1719 779.9434)" style="font-family:'Arial-BoldItalicMT'; font-size:98.723px;">Handt</text>
<text transform="matrix(1 0 0 1 872.1719 642.9434)" style="font-family:'ArialRoundedMTBold'; font-size:98.723px;">HANDT</text>
<text transform="matrix(1 0 0 1 872.1719 537.9434)" style="font-family:'ArialRoundedMTBold'; font-size:98.723px;">Handt</text>
<text transform="matrix(1 0 0 1 1266.1719 537.9434)" style="font-family:'Arial-Black'; font-size:98.723px;">Handt</text>
<g>
	<path d="M732,470l4-14H488.7H477l0,0c-3.1,0-5.8,2.2-6.3,5.3l-14.5,76.7h17.2l4.8-27.6h22.5l-4.8,27.6h17.2l6.9-43l-39.1,0.1
		L486,470H732z"/>
</g>
<g>
	<path d="M725.9,492.1l2.3-12.8h-17.1l-2.3,12.8h-5.6l-2.4,14.1h5.5l-7.2,40.7H454l-3,14h245.7H710l0,0c2.2,0,4.1-1.6,4.4-3.7l9-51
		h9.6l2.5-14.1H725.9z"/>
</g>
<g>
	<g>
		<path class="st0" d="M261.7,186.6h-34.4l1.1-6.5c-5.8,4.7-13.7,8.8-29,8.8c-29.9,0-45.4-23.6-45.4-48.5c0-28.3,19.8-58.4,60-58.4
			c15.7,0,24.7,4,30.1,8.1l1.6-7.6h34.4L261.7,186.6z M215.6,113.1c-15.3,0-23.4,11.9-23.4,23.1c0,10.1,6.7,20,20.7,20
			c15.3,0,23.4-11.9,23.4-23.1C236.3,123,229.6,113.1,215.6,113.1z"/>
	</g>
	<g>
		<path class="st0" d="M300.8,83.2h37.7l-1.8,9.4c5.6-5.8,14.2-11.2,31.9-11.2c22.2,0,37.1,13.3,37.1,36.4c0,3.6-0.4,7.4-1.1,11.5
			l-10.1,57.3h-39.1l9.9-56.4c0.5-2,0.5-3.8,0.5-5.8c0-9.4-4.7-16.2-14.4-16.2c-14.4,0-19.3,11.2-20.9,20.2l-10.3,58.2h-38.9
			L300.8,83.2z"/>
	</g>
	<g>
		<path class="st0" d="M523.9,186.6h-34.4l0.9-5.4c-5.4,5.4-12.8,7.6-24.5,7.6c-31.9,0-47.4-23.6-47.4-48.8
			c0-28.3,19.5-58.2,57.3-58.2c15.5,0,23.6,3.4,30.6,8.1l7.8-37.6h34.4L523.9,186.6z M479.4,113.1c-15.3,0-23.4,11.9-23.4,23.1
			c0,10.1,6.7,20,20.7,20c15.3,0,23.4-11.9,23.4-23.1C500.1,123,493.3,113.1,479.4,113.1z"/>
	</g>
	<g>
		<path class="st0" d="M625.9,31.9L635,0H85.8H59.2C52.1,0,46,5,44.7,12L11.8,186.6h4.1l0,0.1l34.1-0.1h0.8l10.3-59
			c3.4-9.2,10-16.1,21.2-16.1c10.6,0,16.2,8.1,16.2,17.5c0,1.1,0,2.5-0.2,3.8L89,186.6h38.9l10.1-57.5c0.7-4,1.1-7.9,1.1-11.2
			c0-24.7-16.6-36.6-38.2-36.6c-18.5,0-27.9,6.9-34,14.7l12.8-64H625.9z"/>
	</g>
	<g>
		<path class="st0" d="M612,82.3l5.2-29.2h-38.9l-5.2,29.2h-12.8l-5.4,32.1h12.6l-16.3,92.7H6.8L0,239h545.6h30.3l0,0
			c5,0,9.2-3.6,10.1-8.5l20.4-116.1h21.8l5.6-32.1H612z"/>
	</g>
</g>
<g>
	<rect x="893" y="485" width="274" height="21"/>
</g>
<text transform="matrix(1 0 0 1 535 387.9785)" style="font-family:'MyriadPro-Regular'; font-size:12px;">h</text>
</svg>
