<?xml version="1.0" encoding="utf-8"?>
<!-- Generator: Adobe Illustrator 22.1.0, SVG Export Plug-In . SVG Version: 6.00 Build 0)  -->
<svg version="1.1" id="Layer_1" xmlns="http://www.w3.org/2000/svg" xmlns:xlink="http://www.w3.org/1999/xlink" x="0px" y="0px"
	 viewBox="0 0 834.2 440" style="enable-background:new 0 0 834.2 440;" xml:space="preserve">
<style type="text/css">
	.st0{fill:#FFFFFF;}
</style>
<path class="st0" d="M0,0h834.2v275.1H0V0z"/>
<path d="M127.6,157.1h-23.1v45.1c0,4.4-2.1,6.5-6.5,6.5H72.6c-4.4,0-6.5-2.1-6.5-6.5V80c0-4.4,2.1-6.5,6.5-6.5H98
	c4.4,0,6.5,2.1,6.5,6.5v43h23.1V80c0-4.4,2.1-6.5,6.5-6.5h25.2c4.4,0,6.5,2.1,6.5,6.5v122.2c0,4.4-2.1,6.5-6.5,6.5h-25.2
	c-4.4,0-6.5-2.1-6.5-6.5L127.6,157.1z"/>
<path d="M288.5,73.5c5.5,0,7.6,2.5,8.6,6.5l29.8,121.2c1.1,4.6-0.8,7.4-5.2,7.4h-26.3c-4.6,0-6.5-2.1-7.3-6.1l-3.4-15.7H257
	l-3.2,15.7c-1,4-2.9,6.1-7.4,6.1h-26.2c-4.4,0-6.5-2.9-5.3-7.4l30-121.2c1-4,2.9-6.5,8.4-6.5H288.5z M280.1,154.6l-8.8-43.7h-0.8
	l-9.4,43.7H280.1z"/>
<path d="M478.3,202.2c0,4.4-2.1,6.5-6.5,6.5h-23.1c-4.6,0-6.7-1.3-8.2-4.8L413,146.4v55.7c0,4.4-2.1,6.5-6.5,6.5h-24.1
	c-4.4,0-6.5-2.1-6.5-6.5V80c0-4.4,2.1-6.5,6.5-6.5h22.9c4.6,0,6.7,1.3,8.2,4.8l27.7,57.5V80c0-4.4,2.1-6.5,6.5-6.5h24.1
	c4.4,0,6.5,2.1,6.5,6.5V202.2z"/>
<path d="M539.5,208.6c-4.4,0-6.5-2.1-6.5-6.5V80c0-4.4,2.1-6.5,6.5-6.5h37.2c39.3,0,58,17.2,58,67.6c0,50.2-18.3,67.6-57.7,67.6
	h-37.5V208.6z M571.4,107.3v67.6h4.8c14.3,0,19.9-6.1,19.9-33.8c0-27.9-6.1-33.8-20.2-33.8L571.4,107.3z"/>
<path d="M679.3,80c0-4.4,2.1-6.5,6.5-6.5h75.8c4.4,0,6.5,2.1,6.5,6.5v21.4c0,4.4-2.1,6.5-6.5,6.5h-18.7v94.3c0,4.4-2.1,6.5-6.5,6.5
	H711c-4.4,0-6.5-2.1-6.5-6.5v-94.3h-18.7c-4.4,0-6.5-2.1-6.5-6.5L679.3,80z"/>
<g>
	<path class="st0" d="M70.3,335.8v44.4h-7.8V380L43,350v30.3h-7.8v-44.4H43l19.5,30v-30L70.3,335.8L70.3,335.8z"/>
	<path class="st0" d="M167.6,380.1l-7.8,0.1v-44.4h24.3v7.4h-16.5v9.8h16.5v7.8h-16.5v11.7h16.5v7.7h-16.5V380.1z"/>
	<path class="st0" d="M275.1,380.1v-44.4h7.8v31l9.8-13.8l9.8,13.9v-31h7.8v44.4h-7.8l-9.7-13.8l-9.8,13.8h-7.9L275.1,380.1z"/>
	<path class="st0" d="M432,335.7l-14.4,25v19.4h-7.8v-19.6l-14.4-24.9h9l9.2,15.8h0.3l9.2-15.8h8.9L432,335.7z"/>
	<path class="st0" d="M537.6,381.9c-3.2,0-6.2-0.6-9.2-1.9c-1.4-0.6-2.7-1.3-3.9-2.1s-2.4-1.8-3.5-2.9s-2.1-2.2-2.9-3.5
		c-0.8-1.2-1.5-2.6-2.1-3.9c-1.3-2.9-1.9-6-1.9-9.2c0-3.1,0.6-6.2,1.9-9.2c0.6-1.4,1.3-2.7,2.1-3.9s1.8-2.4,2.9-3.5
		c2.2-2.2,4.7-3.9,7.4-5c2.8-1.2,5.9-1.8,9.2-1.8s6.3,0.6,9.2,1.8c2.8,1.2,5.2,2.8,7.4,5s3.9,4.7,5,7.4c1.2,2.8,1.8,5.9,1.8,9.2
		s-0.6,6.3-1.8,9.2c-1.2,2.8-2.8,5.2-5,7.4c-1.1,1.1-2.2,2.1-3.5,2.9c-1.2,0.8-2.6,1.5-3.9,2.1C543.8,381.3,540.7,381.9,537.6,381.9
		z M537.6,342.8c-2.1,0-4.2,0.4-6.1,1.2s-3.6,1.9-5,3.4c-1.4,1.4-2.5,3.1-3.4,5c-0.8,1.9-1.2,3.9-1.2,6.1s0.4,4.2,1.2,6.1
		s1.9,3.6,3.4,5c1.4,1.4,3.1,2.5,5,3.4c1.9,0.8,4,1.2,6.1,1.2s4.2-0.4,6.1-1.2s3.6-1.9,5-3.4c1.4-1.4,2.5-3.1,3.4-5
		c0.8-1.9,1.2-4,1.2-6.1s-0.4-4.2-1.2-6.1s-1.9-3.6-3.4-5c-1.4-1.4-3.1-2.5-5-3.4C541.7,343.2,539.7,342.8,537.6,342.8z"/>
	<path class="st0" d="M665.9,361.5c-0.2,0.1-0.4,0.2-0.6,0.3s-0.4,0.2-0.6,0.3l11.6,18.1H667l-11.1-17.3h-2.5v17.3h-7.8v-44.4h19
		c2,0.7,3.8,1.7,5.3,3.2c1.2,1.3,2.2,2.7,2.8,4.3c0.7,1.6,1,3.3,1,5.1c0,1.7-0.3,3.4-0.9,5.2s-1.5,3.3-2.7,4.6
		C668.8,359.6,667.4,360.7,665.9,361.5z M660.5,355.1c0.9,0,1.6-0.2,2.3-0.7s1.1-0.9,1.4-1.3c0.6-0.7,1-1.4,1.3-2.2s0.5-1.7,0.5-2.5
		s-0.1-1.5-0.4-2.2s-0.7-1.3-1.2-1.8s-1.1-0.9-1.8-1.2s-1.4-0.4-2.2-0.4h-7.1v12.3L660.5,355.1z"/>
	<path class="st0" d="M780.9,357.1l18.1,23h-9.9L776,363.4l-0.3,0.5v16.3h-7.8v-44.4h7.8v14.7l0.3,0.4l11.8-15.1h9.9L780.9,357.1z"
		/>
</g>
</svg>
