<?xml version="1.0" encoding="utf-8"?>
<!-- Generator: Adobe Illustrator 22.1.0, SVG Export Plug-In . SVG Version: 6.00 Build 0)  -->
<svg version="1.1" id="Layer_1" xmlns="http://www.w3.org/2000/svg" xmlns:xlink="http://www.w3.org/1999/xlink" x="0px" y="0px"
	 viewBox="0 0 834.2 440" style="enable-background:new 0 0 834.2 440;" xml:space="preserve">
<style type="text/css">
	.st0{fill:#FFFFFF;}
</style>
<g>
	<path class="st0" d="M9.6,60.1v226.2H824V60.1H9.6z M33,263.1V81.8h765.1v181.3H33z"/>
	<polygon class="st0" points="138,236.4 138,186.6 98.6,186.6 98.6,236.4 62.9,236.4 62.9,110 98.6,110 98.6,156.1 138,156.1 
		138,110 173.7,110 173.7,236.4 	"/>
	<path class="st0" d="M298.9,236.4l-6.9-22.2h-37.9l-6.9,22.2h-37.5L255.6,110H291l45.9,126.3H298.9z M281.3,178.1
		c-4.5-16.2-6.5-23.1-8.1-31.6c-1.6,8.5-3.6,15.5-8.1,31.6l-2.4,8.3h20.9L281.3,178.1z"/>
	<path class="st0" d="M455.3,236.4l-30.1-41.7c-5.6-7.8-16.4-24-19.7-29.6c0.9,5.6,1.1,22.4,1.1,32.7v38.6h-33.6V110h30.9l27.8,37.4
		c5.8,7.8,17,24.5,19.7,29.8c-0.9-5.6-1.1-22.4-1.1-32.7V110h33.6v126.3H455.3z"/>
	<path class="st0" d="M568.4,236.4h-41V110h44.2c39.7,0,65,15,65,62.4C636.6,219.9,613.2,236.4,568.4,236.4 M571.5,140h-8.7v66.4
		h7.6c21.8,0,30.3-8.3,30.3-33.4C600.7,149.7,593.3,140,571.5,140"/>
	<polygon class="st0" points="735.4,140.5 735.4,236.4 700.3,236.4 700.3,140.5 665,140.5 665,110 770.7,110 770.7,140.5 	"/>
	<path class="st0" d="M43.3,347.1c4.5,0,8.4,1.6,11.7,4.8c1.6,1.6,2.8,3.4,3.6,5.3c0.8,1.9,1.2,4,1.2,6.3c0,4.6-1.6,8.5-4.8,11.7
		c-3.2,3.2-7.1,4.8-11.7,4.8H37c-0.3,0-0.6-0.1-0.9-0.2c-0.3-0.1-0.5-0.3-0.7-0.5c-0.2-0.2-0.4-0.4-0.5-0.7
		c-0.1-0.3-0.2-0.6-0.2-0.9v-28.7c0-0.3,0.1-0.6,0.2-0.9c0.1-0.3,0.3-0.5,0.5-0.7c0.2-0.2,0.4-0.3,0.7-0.4c0.3-0.1,0.6-0.2,0.9-0.2
		H43.3z M43.3,375.7c3.3,0,6.2-1.2,8.6-3.6c1.2-1.2,2.1-2.5,2.7-3.9c0.6-1.4,0.9-3,0.9-4.7c0-3.3-1.2-6.2-3.6-8.6
		c-2.4-2.4-5.2-3.6-8.6-3.6h-4.2v24.3H43.3z"/>
	<path class="st0" d="M76.3,377.9c0,0.6-0.2,1.1-0.6,1.6c-0.4,0.4-0.9,0.6-1.6,0.6c-0.6,0-1.1-0.2-1.5-0.6c-0.4-0.4-0.6-0.9-0.6-1.6
		v-28.7c0-0.6,0.2-1.1,0.6-1.6c0.4-0.4,0.9-0.6,1.5-0.6c0.6,0,1.1,0.2,1.6,0.6c0.4,0.4,0.6,1,0.6,1.6V377.9z"/>
	<path class="st0" d="M115.7,374.9c0,0.6-0.2,1.1-0.7,1.6c-3.1,2.5-6.5,3.7-10.4,3.7c-4.6,0-8.5-1.6-11.7-4.8
		c-3.2-3.2-4.9-7.1-4.9-11.7c0-4.6,1.6-8.5,4.9-11.7c3.2-3.2,7.1-4.8,11.7-4.8c3.9,0,7.5,1.3,10.6,3.9c0.4,0.4,0.6,0.9,0.6,1.5
		c0,0.3,0,0.6-0.2,0.9c-0.1,0.3-0.3,0.5-0.5,0.7c-0.2,0.2-0.4,0.4-0.7,0.5c-0.3,0.1-0.6,0.2-0.9,0.2c-0.6,0-1.1-0.2-1.5-0.6
		c-1.1-0.8-2.2-1.5-3.5-1.9c-1.3-0.4-2.6-0.7-4-0.7c-3.4,0-6.2,1.2-8.6,3.6c-2.4,2.3-3.5,5.2-3.5,8.6c0,3.4,1.2,6.2,3.5,8.6
		c2.4,2.4,5.3,3.6,8.6,3.6c2.5,0,4.8-0.6,6.7-2v-6.4h-5.7c-0.6,0-1.1-0.2-1.5-0.6c-0.4-0.4-0.6-0.9-0.6-1.6c0-0.3,0-0.6,0.2-0.9
		c0.1-0.3,0.3-0.5,0.5-0.7c0.2-0.2,0.4-0.4,0.7-0.5c0.2-0.1,0.6-0.2,0.9-0.2h7.9c0.3,0,0.6,0.1,0.8,0.2c0.3,0.1,0.5,0.3,0.7,0.5
		c0.2,0.2,0.3,0.4,0.5,0.7c0.1,0.3,0.2,0.5,0.2,0.8V374.9z"/>
	<path class="st0" d="M132.5,377.9c0,0.6-0.2,1.1-0.7,1.6c-0.4,0.4-0.9,0.6-1.6,0.6c-0.6,0-1.1-0.2-1.5-0.6
		c-0.4-0.4-0.6-0.9-0.6-1.6v-28.7c0-0.6,0.2-1.1,0.6-1.6c0.4-0.4,0.9-0.6,1.5-0.6c0.6,0,1.1,0.2,1.6,0.6c0.4,0.4,0.7,1,0.7,1.6
		V377.9z"/>
	<path class="st0" d="M167.1,351.4h-8.2v26.5c0,0.6-0.2,1.1-0.6,1.6c-0.4,0.4-0.9,0.6-1.5,0.6c-0.6,0-1.1-0.2-1.6-0.6
		c-0.4-0.4-0.6-0.9-0.6-1.6v-26.5h-8.2c-0.6,0-1.1-0.2-1.5-0.6c-0.5-0.4-0.6-1-0.6-1.6c0-0.6,0.2-1.1,0.6-1.6
		c0.4-0.4,0.9-0.6,1.5-0.6h20.7c0.6,0,1.1,0.2,1.6,0.6c0.4,0.4,0.6,1,0.6,1.6c0,0.6-0.2,1.1-0.6,1.6
		C168.2,351.2,167.7,351.4,167.1,351.4"/>
	<path class="st0" d="M171.9,376.9l11-28.4c0.4-1,1.1-1.5,2.1-1.5c1,0,1.7,0.5,2.1,1.5l11.1,28.5c0.1,0.3,0.2,0.6,0.2,0.9
		c0,0.6-0.2,1.1-0.6,1.6c-0.4,0.4-0.9,0.6-1.6,0.6c-0.6,0-1.1-0.2-1.5-0.6c-0.2-0.2-0.4-0.5-0.5-0.7l-3.8-9.8h-10.6l-3.8,9.8
		c-0.1,0.2-0.3,0.5-0.5,0.7c-0.4,0.4-1,0.6-1.6,0.6c-0.6,0-1.1-0.2-1.5-0.6c-0.4-0.4-0.6-0.9-0.6-1.6
		C171.7,377.6,171.8,377.3,171.9,376.9 M188.6,364.6l-3.6-9.3l-3.6,9.3H188.6z"/>
	<path class="st0" d="M209,349.3c0-0.6,0.2-1.1,0.6-1.6c0.4-0.4,0.9-0.6,1.5-0.6c0.6,0,1.1,0.2,1.5,0.6c0.4,0.4,0.6,1,0.6,1.6v26.5
		h15.3c0.6,0,1.1,0.2,1.5,0.6c0.4,0.4,0.6,0.9,0.6,1.6c0,0.6-0.2,1.1-0.6,1.5c-0.4,0.4-0.9,0.6-1.5,0.6h-17.5
		c-0.3,0-0.6-0.1-0.9-0.2c-0.3-0.1-0.5-0.3-0.7-0.5c-0.2-0.2-0.4-0.4-0.5-0.7c-0.1-0.3-0.2-0.6-0.2-0.9V349.3z"/>
	<path class="st0" d="M279.4,366h-5.7v5.7c0,0.6-0.2,1.1-0.6,1.5c-0.4,0.4-0.9,0.6-1.5,0.6c-0.6,0-1.1-0.2-1.6-0.6
		c-0.4-0.4-0.6-0.9-0.6-1.5V366h-5.7c-0.6,0-1.1-0.2-1.5-0.6c-0.4-0.4-0.6-0.9-0.6-1.5c0-0.6,0.2-1.1,0.6-1.5
		c0.4-0.4,0.9-0.6,1.5-0.6h5.7V356c0-0.6,0.2-1.1,0.6-1.5c0.4-0.4,0.9-0.6,1.5-0.6c0.6,0,1.1,0.2,1.5,0.6c0.4,0.4,0.6,0.9,0.6,1.5
		v5.7h5.7c0.6,0,1.1,0.2,1.5,0.6c0.4,0.4,0.7,0.9,0.7,1.5s-0.2,1.1-0.7,1.5C280.5,365.8,279.9,366,279.4,366"/>
	<path class="st0" d="M337.7,372.7c0.3,0,0.6,0.1,0.9,0.2c0.3,0.1,0.5,0.3,0.7,0.5c0.2,0.2,0.3,0.4,0.5,0.7c0.1,0.3,0.2,0.6,0.2,0.9
		c0,0.6-0.2,1.1-0.7,1.6c-3.1,2.5-6.5,3.7-10.4,3.7c-4.6,0-8.5-1.6-11.7-4.8c-3.2-3.2-4.8-7.1-4.8-11.7c0-4.6,1.6-8.5,4.8-11.7
		c3.2-3.2,7.1-4.9,11.7-4.9c3.9,0,7.4,1.3,10.6,3.9c0.4,0.4,0.6,0.9,0.6,1.5c0,0.3,0,0.6-0.2,0.9c-0.1,0.3-0.3,0.5-0.5,0.7
		c-0.2,0.2-0.4,0.4-0.7,0.5c-0.3,0.1-0.6,0.2-0.9,0.2c-0.6,0-1-0.2-1.5-0.6c-1.1-0.8-2.2-1.5-3.5-1.9c-1.3-0.4-2.6-0.7-4-0.7
		c-3.4,0-6.2,1.2-8.6,3.6c-2.4,2.4-3.5,5.2-3.5,8.6c0,3.4,1.2,6.2,3.5,8.6c2.4,2.4,5.2,3.6,8.6,3.6c2.9,0,5.4-0.9,7.6-2.7
		C336.8,372.8,337.2,372.7,337.7,372.7"/>
	<path class="st0" d="M350.5,377.9v-28.7c0-0.3,0-0.6,0.2-0.9c0.1-0.3,0.3-0.5,0.5-0.7c0.2-0.2,0.4-0.4,0.7-0.5
		c0.3-0.1,0.6-0.2,0.9-0.2h8c1.4,0,2.7,0.3,3.9,0.8c1.2,0.6,2.3,1.3,3.2,2.2c0.9,0.9,1.6,2,2.2,3.2c0.5,1.2,0.8,2.6,0.8,3.9
		c0,0.9-0.1,1.8-0.3,2.7c-0.2,0.9-0.6,1.7-1,2.4c-0.5,0.8-1,1.5-1.7,2.1c-0.7,0.7-1.4,1.2-2.3,1.7l6.6,10.6c0.2,0.4,0.4,0.8,0.4,1.2
		c0,0.3-0.1,0.6-0.2,0.9c-0.1,0.3-0.3,0.5-0.5,0.7c-0.2,0.2-0.4,0.4-0.7,0.5c-0.3,0.1-0.6,0.2-0.9,0.2c-0.8,0-1.4-0.4-1.9-1.1
		l-7.3-11.7h-6.2v10.6c0,0.6-0.2,1.1-0.6,1.6c-0.4,0.4-0.9,0.6-1.6,0.6c-0.6,0-1.1-0.2-1.5-0.6C350.7,379.1,350.5,378.5,350.5,377.9
		 M354.8,351.4V363h5.8c0.8,0,1.5-0.1,2.3-0.4c0.7-0.3,1.3-0.7,1.8-1.3c0.5-0.5,0.9-1.1,1.2-1.8c0.3-0.7,0.5-1.4,0.5-2.2
		c0-0.8-0.2-1.5-0.5-2.3c-0.3-0.7-0.7-1.3-1.2-1.8c-0.5-0.5-1.1-0.9-1.8-1.2c-0.7-0.3-1.5-0.5-2.2-0.5H354.8z"/>
	<path class="st0" d="M404.2,375.7c0.6,0,1.1,0.2,1.5,0.6c0.4,0.4,0.6,0.9,0.6,1.6c0,0.6-0.2,1.1-0.6,1.5c-0.4,0.4-0.9,0.6-1.5,0.6
		h-19.1c-0.3,0-0.6-0.1-0.9-0.2c-0.3-0.1-0.5-0.3-0.7-0.5c-0.2-0.2-0.4-0.4-0.5-0.7c-0.1-0.3-0.2-0.6-0.2-0.9v-28.7
		c0-0.3,0.1-0.6,0.2-0.9c0.1-0.3,0.3-0.5,0.5-0.7c0.2-0.2,0.4-0.3,0.7-0.5c0.3-0.1,0.5-0.2,0.9-0.2h19.1c0.6,0,1.1,0.2,1.5,0.6
		c0.4,0.4,0.6,1,0.6,1.6c0,0.6-0.2,1.1-0.6,1.6c-0.4,0.4-0.9,0.6-1.5,0.6h-16.9v10h12.2c0.6,0,1.1,0.2,1.5,0.6
		c0.4,0.4,0.6,1,0.6,1.5c0,0.6-0.2,1.1-0.6,1.5c-0.4,0.4-0.9,0.7-1.5,0.7h-12.2v10H404.2z"/>
	<path class="st0" d="M417.2,376.9l11-28.4c0.4-1,1.1-1.5,2.1-1.5c1,0,1.7,0.5,2.1,1.5l11.1,28.5c0.1,0.3,0.2,0.6,0.2,0.9
		c0,0.6-0.2,1.1-0.6,1.6c-0.4,0.4-0.9,0.6-1.6,0.6c-0.6,0-1.1-0.2-1.5-0.6c-0.2-0.2-0.4-0.5-0.5-0.7l-3.8-9.8h-10.6l-3.8,9.8
		c-0.1,0.2-0.3,0.5-0.5,0.7c-0.4,0.4-0.9,0.6-1.5,0.6c-0.6,0-1.1-0.2-1.5-0.6c-0.4-0.4-0.6-0.9-0.6-1.6
		C417,377.6,417.1,377.3,417.2,376.9 M433.9,364.6l-3.6-9.3l-3.6,9.3H433.9z"/>
	<path class="st0" d="M469.3,351.4h-8.2v26.5c0,0.6-0.2,1.1-0.6,1.6c-0.4,0.4-0.9,0.6-1.6,0.6c-0.6,0-1.1-0.2-1.5-0.6
		c-0.4-0.4-0.6-0.9-0.6-1.6v-26.5h-8.2c-0.6,0-1.1-0.2-1.6-0.6c-0.4-0.4-0.6-1-0.6-1.6c0-0.6,0.2-1.1,0.6-1.6
		c0.4-0.4,0.9-0.6,1.6-0.6h20.7c0.6,0,1.1,0.2,1.5,0.6c0.4,0.4,0.6,1,0.6,1.6c0,0.6-0.2,1.1-0.6,1.6
		C470.5,351.2,469.9,351.4,469.3,351.4"/>
	<path class="st0" d="M488,377.9c0,0.6-0.2,1.1-0.6,1.6c-0.4,0.4-0.9,0.6-1.5,0.6c-0.6,0-1.1-0.2-1.5-0.6c-0.4-0.4-0.6-0.9-0.6-1.6
		v-28.7c0-0.6,0.2-1.1,0.6-1.6c0.4-0.4,0.9-0.6,1.5-0.6c0.6,0,1.1,0.2,1.5,0.6c0.4,0.4,0.6,1,0.6,1.6V377.9z"/>
	<path class="st0" d="M513.1,380.1c-1,0-1.6-0.5-2-1.4l-11.1-28.4c-0.2-0.4-0.2-0.8-0.2-1.1c0-0.3,0-0.6,0.2-0.9
		c0.1-0.3,0.3-0.5,0.5-0.7c0.2-0.2,0.4-0.3,0.7-0.5c0.3-0.1,0.6-0.2,0.9-0.2c1,0,1.6,0.4,2,1.3l9.1,23.5l9.1-23.5
		c0.3-0.9,1-1.3,2-1.3c0.3,0,0.6,0.1,0.9,0.2c0.3,0.1,0.5,0.3,0.7,0.5c0.2,0.2,0.3,0.4,0.5,0.7c0.1,0.3,0.2,0.6,0.2,0.9
		c0,0.3-0.1,0.7-0.3,1.1l-11.1,28.4C514.7,379.7,514,380.1,513.1,380.1"/>
	<path class="st0" d="M558.4,375.7c0.6,0,1.1,0.2,1.5,0.6c0.4,0.4,0.6,0.9,0.6,1.6c0,0.6-0.2,1.1-0.6,1.5c-0.4,0.4-0.9,0.6-1.5,0.6
		h-19.1c-0.3,0-0.6-0.1-0.9-0.2c-0.3-0.1-0.5-0.3-0.7-0.5c-0.2-0.2-0.4-0.4-0.5-0.7c-0.1-0.3-0.2-0.6-0.2-0.9v-28.7
		c0-0.3,0.1-0.6,0.2-0.9c0.1-0.3,0.3-0.5,0.5-0.7c0.2-0.2,0.4-0.3,0.7-0.5c0.3-0.1,0.5-0.2,0.9-0.2h19.1c0.6,0,1.1,0.2,1.5,0.6
		c0.4,0.4,0.6,1,0.6,1.6c0,0.6-0.2,1.1-0.6,1.6c-0.4,0.4-0.9,0.6-1.5,0.6h-16.9v10h12.2c0.6,0,1.1,0.2,1.5,0.6
		c0.4,0.4,0.6,1,0.6,1.5c0,0.6-0.2,1.1-0.6,1.5c-0.4,0.4-0.9,0.7-1.5,0.7h-12.2v10H558.4z"/>
	<path class="st0" d="M591.4,376.9l11-28.4c0.4-1,1.1-1.5,2.1-1.5c1,0,1.7,0.5,2.1,1.5l11.1,28.5c0.1,0.3,0.2,0.6,0.2,0.9
		c0,0.6-0.2,1.1-0.6,1.6c-0.4,0.4-0.9,0.6-1.5,0.6c-0.6,0-1.1-0.2-1.5-0.6c-0.2-0.2-0.4-0.5-0.5-0.7l-3.8-9.8h-10.6l-3.8,9.8
		c-0.1,0.2-0.3,0.5-0.5,0.7c-0.4,0.4-0.9,0.6-1.5,0.6c-0.6,0-1.1-0.2-1.5-0.6c-0.4-0.4-0.6-0.9-0.6-1.6
		C591.2,377.6,591.2,377.3,591.4,376.9 M608.1,364.6l-3.6-9.3l-3.6,9.3H608.1z"/>
	<path class="st0" d="M654.8,374.9c0,0.6-0.2,1.1-0.7,1.6c-3.1,2.5-6.5,3.7-10.4,3.7c-4.6,0-8.5-1.6-11.7-4.8
		c-3.2-3.2-4.8-7.1-4.8-11.7c0-4.6,1.6-8.5,4.8-11.7c3.2-3.2,7.1-4.8,11.7-4.8c3.9,0,7.4,1.3,10.6,3.9c0.4,0.4,0.6,0.9,0.6,1.5
		c0,0.3-0.1,0.6-0.2,0.9c-0.1,0.3-0.3,0.5-0.5,0.7c-0.2,0.2-0.5,0.4-0.7,0.5c-0.3,0.1-0.6,0.2-0.8,0.2c-0.6,0-1.1-0.2-1.5-0.6
		c-1.1-0.8-2.2-1.5-3.5-1.9c-1.3-0.4-2.6-0.7-4-0.7c-3.4,0-6.2,1.2-8.6,3.6c-2.4,2.3-3.5,5.2-3.5,8.6c0,3.4,1.2,6.2,3.5,8.6
		c2.4,2.4,5.2,3.6,8.6,3.6c2.5,0,4.7-0.6,6.7-2v-6.4h-5.7c-0.6,0-1.1-0.2-1.6-0.6c-0.4-0.4-0.6-0.9-0.6-1.6c0-0.3,0-0.6,0.2-0.9
		c0.1-0.3,0.3-0.5,0.5-0.7c0.2-0.2,0.4-0.4,0.7-0.5c0.3-0.1,0.6-0.2,0.9-0.2h7.9c0.3,0,0.6,0.1,0.8,0.2c0.3,0.1,0.5,0.3,0.7,0.5
		c0.2,0.2,0.3,0.4,0.5,0.7c0.1,0.3,0.2,0.5,0.2,0.8V374.9z"/>
	<path class="st0" d="M687,375.7c0.6,0,1.1,0.2,1.5,0.6c0.4,0.4,0.6,0.9,0.6,1.6c0,0.6-0.2,1.1-0.6,1.5c-0.4,0.4-0.9,0.6-1.5,0.6
		h-19.1c-0.3,0-0.6-0.1-0.9-0.2c-0.3-0.1-0.5-0.3-0.7-0.5c-0.2-0.2-0.4-0.4-0.5-0.7c-0.1-0.3-0.2-0.6-0.2-0.9v-28.7
		c0-0.3,0.1-0.6,0.2-0.9c0.1-0.3,0.3-0.5,0.5-0.7c0.2-0.2,0.4-0.3,0.7-0.5c0.3-0.1,0.6-0.2,0.9-0.2H687c0.6,0,1.1,0.2,1.5,0.6
		c0.4,0.4,0.6,1,0.6,1.6c0,0.6-0.2,1.1-0.6,1.6c-0.4,0.4-0.9,0.6-1.5,0.6h-16.9v10h12.2c0.6,0,1.1,0.2,1.5,0.6
		c0.4,0.4,0.6,1,0.6,1.5c0,0.6-0.2,1.1-0.6,1.5c-0.4,0.4-0.9,0.7-1.5,0.7h-12.2v10H687z"/>
	<path class="st0" d="M699.8,377.9v-28.7c0-0.3,0-0.6,0.2-0.9c0.1-0.3,0.3-0.5,0.5-0.7c0.2-0.2,0.4-0.4,0.7-0.5
		c0.3-0.1,0.6-0.2,0.9-0.2c0.6,0,1.2,0.3,1.7,0.8l18.4,23.7v-22.3c0-0.6,0.2-1.1,0.6-1.6c0.4-0.4,1-0.6,1.6-0.6
		c0.6,0,1.1,0.2,1.6,0.6c0.4,0.4,0.6,1,0.6,1.6v28.7c0,0.3,0,0.6-0.2,0.9c-0.1,0.3-0.3,0.5-0.5,0.7c-0.2,0.2-0.4,0.4-0.7,0.5
		c-0.3,0.1-0.6,0.2-0.9,0.2c-0.6,0-1.2-0.3-1.7-0.8l-18.4-23.7v22.3c0,0.6-0.2,1.1-0.6,1.6c-0.4,0.4-0.9,0.6-1.5,0.6
		c-0.6,0-1.1-0.2-1.6-0.6C700,379.1,699.8,378.5,699.8,377.9"/>
	<path class="st0" d="M762.6,372.7c0.3,0,0.6,0.1,0.8,0.2c0.3,0.1,0.5,0.3,0.7,0.5c0.2,0.2,0.3,0.4,0.5,0.7c0.1,0.3,0.2,0.6,0.2,0.9
		c0,0.6-0.2,1.1-0.7,1.6c-3.1,2.5-6.5,3.7-10.4,3.7c-4.6,0-8.5-1.6-11.7-4.8c-3.2-3.2-4.8-7.1-4.8-11.7c0-4.6,1.6-8.5,4.8-11.7
		c3.2-3.2,7.1-4.9,11.7-4.9c3.9,0,7.4,1.3,10.6,3.9c0.4,0.4,0.6,0.9,0.6,1.5c0,0.3-0.1,0.6-0.2,0.9c-0.1,0.3-0.3,0.5-0.5,0.7
		c-0.2,0.2-0.4,0.4-0.7,0.5c-0.3,0.1-0.6,0.2-0.9,0.2c-0.5,0-1-0.2-1.5-0.6c-1.1-0.8-2.2-1.5-3.5-1.9c-1.3-0.4-2.6-0.7-4-0.7
		c-3.4,0-6.2,1.2-8.6,3.6c-2.4,2.4-3.5,5.2-3.5,8.6c0,3.4,1.2,6.2,3.5,8.6c2.4,2.4,5.2,3.6,8.6,3.6c2.9,0,5.4-0.9,7.6-2.7
		C761.7,372.8,762.1,372.7,762.6,372.7"/>
	<path class="st0" d="M779.4,348l7.8,11.6l7.8-11.6c0.4-0.6,1-0.9,1.8-0.9c0.6,0,1.1,0.2,1.5,0.6c0.4,0.4,0.6,1,0.6,1.6
		c0,0.5-0.1,0.9-0.3,1.2l-9.2,13.8v13.7c0,0.6-0.2,1.1-0.6,1.6c-0.4,0.4-0.9,0.6-1.6,0.6c-0.6,0-1.1-0.2-1.5-0.6
		c-0.4-0.4-0.7-0.9-0.7-1.6v-13.7l-9.2-13.8c-0.2-0.4-0.4-0.8-0.4-1.2c0-0.6,0.2-1.1,0.6-1.6c0.4-0.4,0.9-0.6,1.6-0.6
		C778.3,347.1,778.9,347.4,779.4,348"/>
</g>
</svg>
