<?xml version="1.0" encoding="utf-8"?>
<!-- Generator: Adobe Illustrator 22.1.0, SVG Export Plug-In . SVG Version: 6.00 Build 0)  -->
<svg version="1.1" id="Layer_1" xmlns="http://www.w3.org/2000/svg" xmlns:xlink="http://www.w3.org/1999/xlink" x="0px" y="0px"
	 viewBox="0 0 834.2 440" style="enable-background:new 0 0 834.2 440;" xml:space="preserve">
<style type="text/css">
	.st0{fill:#FFFFFF;}
	.st1{fill:#F9CC10;}
	.st2{fill:#070707;}
	.st3{enable-background:new    ;}
	.st4{fill:#FCD81E;}
	.st5{fill:#231F20;}
	.st6{fill:#F5F5F6;}
	.st7{fill:none;stroke:#D0001C;stroke-miterlimit:10;}
	.st8{fill:#D0001C;}
</style>
<rect x="-1016.7" y="-205.9" class="st0" width="782.8" height="203.5"/>
<rect x="1077" y="15.2" class="st0" width="790.3" height="244.7"/>
<g>
	<rect x="3073.1" y="-1712.9" class="st1" width="498" height="498"/>
</g>
<g>
	<rect x="2167.1" y="-1718.2" class="st1" width="498" height="498"/>
</g>
<g>
	<rect x="650.7" y="-3465.5" class="st1" width="1191.3" height="1191.3"/>
</g>
<g>
	<path class="st1" d="M4034.9-1882.8c-66.8,0-129.6-26-176.8-73.2s-73.2-110-73.2-176.8s26-129.6,73.2-176.8s110-73.2,176.8-73.2
		s129.6,26,176.8,73.2s73.2,110,73.2,176.8s-26,129.6-73.2,176.8S4101.6-1882.8,4034.9-1882.8z"/>
	<g>
		<path class="st2" d="M4034.9-2378.8c33.2,0,65.4,6.5,95.8,19.3c29.3,12.4,55.6,30.1,78.2,52.7c22.6,22.6,40.3,48.9,52.7,78.2
			c12.8,30.3,19.3,62.5,19.3,95.8s-6.5,65.4-19.3,95.8c-12.4,29.3-30.1,55.6-52.7,78.2c-22.6,22.6-48.9,40.3-78.2,52.7
			c-30.3,12.8-62.5,19.3-95.8,19.3c-33.2,0-65.4-6.5-95.8-19.3c-29.3-12.4-55.6-30.1-78.2-52.7c-22.6-22.6-40.3-48.9-52.7-78.2
			c-12.8-30.3-19.3-62.5-19.3-95.8s6.5-65.4,19.3-95.8c12.4-29.3,30.1-55.6,52.7-78.2c22.6-22.6,48.9-40.3,78.2-52.7
			C3969.4-2372.3,4001.6-2378.8,4034.9-2378.8 M4034.9-2386.8c-140.3,0-254,113.7-254,254s113.7,254,254,254
			c140.3,0,254-113.7,254-254S4175.1-2386.8,4034.9-2386.8L4034.9-2386.8z"/>
	</g>
</g>
<path d="M3300.9-286.6h-15.1l0.5-2.9c-2.6,2.1-6,3.9-12.7,3.9c-13.1,0-19.9-10.4-19.9-21.3c0-12.4,8.7-25.7,26.4-25.7
	c6.9,0,10.9,1.8,13.2,3.6l0.7-3.4h15.1L3300.9-286.6z M3280.6-318.8c-6.7,0-10.3,5.2-10.3,10.2c0,4.4,3,8.8,9.1,8.8
	c6.7,0,10.3-5.2,10.3-10.2C3289.7-314.5,3286.8-318.8,3280.6-318.8z"/>
<path d="M3318-332h16.6l-0.8,4.1c2.5-2.6,6.2-4.9,14-4.9c9.8,0,16.3,5.8,16.3,16c0,1.6-0.2,3.3-0.5,5l-4.4,25.2H3342l4.3-24.8
	c0.2-0.9,0.2-1.7,0.2-2.6c0-4.1-2.1-7.1-6.3-7.1c-6.3,0-8.5,4.9-9.2,8.9l-4.5,25.6h-17.1L3318-332z"/>
<path d="M3416.1-286.6H3401l0.4-2.4c-2.4,2.4-5.6,3.4-10.8,3.4c-14,0-20.8-10.4-20.8-21.4c0-12.4,8.6-25.6,25.2-25.6
	c6.8,0,10.4,1.5,13.4,3.6l3.4-16.5h15.1L3416.1-286.6z M3396.5-318.8c-6.7,0-10.3,5.2-10.3,10.2c0,4.4,3,8.8,9.1,8.8
	c6.7,0,10.3-5.2,10.3-10.2C3405.6-314.5,3402.7-318.8,3396.5-318.8z"/>
<text transform="matrix(1 0 0 1 3177.0308 -181.5689)" style="font-family:'godoRounded-L'; font-size:98.723px;">Handt</text>
<text transform="matrix(1 0 0 1 3995.0308 -169.5689)" style="font-family:'godoRounded-L'; font-size:98.723px;">hyper</text>
<text transform="matrix(1 0 0 1 1140.5311 196.6961)" style="font-family:'Arial-Black'; font-size:160.3851px; letter-spacing:9;">HANDT</text>
<text transform="matrix(1 0 0 1 1102.0408 -1403.3038)" style="font-family:'HYPE'; font-size:168.1358px;">Handt</text>
<text transform="matrix(1 0 0 1 -989.1683 -32.5071)" style="font-family:'HYPE'; font-size:168.1358px;">Handt</text>
<text transform="matrix(1 0 0 1 2025.7747 -2234.0349)" style="font-family:'HYPE'; font-size:168.1358px;">&apos;</text>
<text transform="matrix(1 0 0 1 3601.0308 -44.5689)" style="font-family:'Arial-BoldItalicMT'; font-size:98.723px;">Handt</text>
<text transform="matrix(1 0 0 1 3601.0308 -181.5689)" style="font-family:'ArialRoundedMTBold'; font-size:98.723px;">HANDT</text>
<text transform="matrix(1 0 0 1 3601.0308 -286.5689)" style="font-family:'ArialRoundedMTBold'; font-size:98.723px;">Handt</text>
<text transform="matrix(1 0 0 1 3993.9587 -378.0643)" style="font-family:'BEYNO'; font-size:98.723px;">Handt</text>
<g>
	<path d="M3460.9-354.5l4-14h-247.3h-11.7l0,0c-3.1,0-5.8,2.2-6.3,5.3l-14.5,76.7h17.2l4.8-27.6h22.5l-4.8,27.6h17.2l6.9-43
		l-39.1,0.1l5.1-25.1H3460.9z"/>
</g>
<g>
	<path d="M3454.8-332.4l2.3-12.8H3440l-2.3,12.8h-5.6l-2.4,14.1h5.5l-7.2,40.7h-245.1l-3,14h245.7h13.3l0,0c2.2,0,4.1-1.6,4.4-3.7
		l9-51h9.6l2.5-14.1H3454.8z"/>
</g>
<g>
	<g>
		<path class="st4" d="M2953.6-712.9h-34.4l1.1-6.5c-5.8,4.7-13.7,8.8-29,8.8c-29.9,0-45.4-23.6-45.4-48.5c0-28.3,19.8-58.4,60-58.4
			c15.7,0,24.7,4,30.1,8.1l1.6-7.6h34.4L2953.6-712.9z M2907.5-786.4c-15.3,0-23.4,11.9-23.4,23.1c0,10.1,6.7,20,20.7,20
			c15.3,0,23.4-11.9,23.4-23.1C2928.2-776.5,2921.5-786.4,2907.5-786.4z"/>
	</g>
	<g>
		<path class="st4" d="M2992.7-816.3h37.7l-1.8,9.4c5.6-5.8,14.2-11.2,31.9-11.2c22.2,0,37.1,13.3,37.1,36.4c0,3.6-0.4,7.4-1.1,11.5
			l-10.1,57.3h-39.1l9.9-56.4c0.5-2,0.5-3.8,0.5-5.8c0-9.4-4.7-16.2-14.4-16.2c-14.4,0-19.3,11.2-20.9,20.2l-10.3,58.2h-38.9
			L2992.7-816.3z"/>
	</g>
	<g>
		<path class="st4" d="M3215.8-712.9h-34.4l0.9-5.4c-5.4,5.4-12.8,7.6-24.5,7.6c-31.9,0-47.4-23.6-47.4-48.8
			c0-28.3,19.5-58.2,57.3-58.2c15.5,0,23.6,3.4,30.6,8.1l7.8-37.6h34.4L3215.8-712.9z M3171.3-786.4c-15.3,0-23.4,11.9-23.4,23.1
			c0,10.1,6.7,20,20.7,20c15.3,0,23.4-11.9,23.4-23.1C3192-776.5,3185.2-786.4,3171.3-786.4z"/>
	</g>
	<g>
		<path class="st4" d="M3317.8-867.6l9.1-31.9h-549.2h-26.6c-7.1,0-13.2,5-14.5,12l-32.9,174.6h4.1v0.1l34.1-0.1h0.8l10.3-59
			c3.4-9.2,10-16.1,21.2-16.1c10.6,0,16.2,8.1,16.2,17.5c0,1.1,0,2.5-0.2,3.8l-9.3,53.8h38.9l10.1-57.5c0.7-4,1.1-7.9,1.1-11.2
			c0-24.7-16.6-36.6-38.2-36.6c-18.5,0-27.9,6.9-34,14.7l12.8-64L3317.8-867.6L3317.8-867.6L3317.8-867.6z"/>
	</g>
	<g>
		<path class="st4" d="M3303.9-817.2l5.2-29.2h-38.9l-5.2,29.2h-12.8l-5.4,32.1h12.6l-16.3,92.7h-544.4l-6.8,31.9h545.6h30.3l0,0
			c5,0,9.2-3.6,10.1-8.5l20.4-116.1h21.8l5.6-32.1C3325.7-817.2,3303.9-817.2,3303.9-817.2z"/>
	</g>
</g>
<g>
	<rect x="3621.9" y="-339.5" width="274" height="21"/>
</g>
<text transform="matrix(1 0 0 1 3263.8589 -436.5338)" style="font-family:'ArialMT'; font-size:12px;">h</text>
<rect x="3519.8" y="-924.3" class="st4" width="334" height="100"/>
<g>
	<path class="st5" d="M3555.9-899.5h15.6v17.6h17v-17.6h15.6v50.4h-15.6v-20.4h-17v20.4h-15.6V-899.5z"/>
	<path class="st5" d="M3645.4-857.4h-17.7l-2.5,8.3h-15.9l19-50.4h17l18.9,50.4h-16.3L3645.4-857.4z M3642.2-868.3l-5.6-18.1
		l-5.5,18.1H3642.2z"/>
	<path class="st5" d="M3669.2-899.5h14.5l19,27.9v-27.9h14.7v50.4h-14.7l-18.8-27.7v27.7h-14.6v-50.4H3669.2z"/>
	<path class="st5" d="M3723.7-899.5h23.1c4.6,0,8.2,0.6,11,1.9c2.8,1.2,5.1,3,7,5.3c1.8,2.3,3.2,5,4,8.1c0.8,3.1,1.2,6.3,1.2,9.8
		c0,5.4-0.6,9.6-1.8,12.5c-1.2,3-2.9,5.5-5.1,7.5s-4.5,3.3-7,4c-3.4,0.9-6.5,1.4-9.3,1.4h-23.1V-899.5L3723.7-899.5z M3739.3-888.1
		v27.6h3.8c3.3,0,5.6-0.4,6.9-1.1s2.5-2,3.2-3.8c0.8-1.8,1.2-4.7,1.2-8.7c0-5.3-0.9-9-2.6-11s-4.6-3-8.7-3
		C3743.1-888.1,3739.3-888.1,3739.3-888.1z"/>
	<path class="st5" d="M3770.5-899.5h47.3v12.4h-15.9v37.9h-15.6V-887h-15.9L3770.5-899.5L3770.5-899.5z"/>
</g>
<g>
	<g>
		<path d="M1103-1121.4h44v49.6h47.9v-49.6h44v142h-44v-57.5H1147v57.5h-44V-1121.4z"/>
		<path d="M1355.3-1002.7h-49.9l-7,23.4h-44.8l53.5-142h47.9l53.3,142h-45.9L1355.3-1002.7z M1346.3-1033.5l-15.8-51l-15.5,51
			H1346.3z"/>
		<path d="M1422.4-1121.4h40.9l53.5,78.6v-78.6h41.4v142h-41.4l-53-78.1v78.1h-41.1v-142H1422.4z"/>
		<path d="M1576-1121.4h65.1c13,0,23.1,1.7,31,5.4c7.9,3.4,14.4,8.5,19.7,14.9c5.1,6.5,9,14.1,11.3,22.8c2.3,8.7,3.4,17.8,3.4,27.6
			c0,15.2-1.7,27.1-5.1,35.2c-3.4,8.5-8.2,15.5-14.4,21.1c-6.2,5.6-12.7,9.3-19.7,11.3c-9.6,2.5-18.3,3.9-26.2,3.9H1576V-1121.4
			L1576-1121.4z M1619.9-1089.3v77.8h10.7c9.3,0,15.8-1.1,19.4-3.1c3.7-2,7-5.6,9-10.7c2.3-5.1,3.4-13.2,3.4-24.5
			c0-14.9-2.5-25.4-7.3-31c-4.8-5.6-13-8.5-24.5-8.5C1630.6-1089.3,1619.9-1089.3,1619.9-1089.3z"/>
		<path d="M1707.9-1121.4h133.3v34.9h-44.8v106.8h-44v-106.5h-44.8L1707.9-1121.4L1707.9-1121.4z"/>
	</g>
</g>
<rect x="3971.9" y="-939.9" class="st4" width="300" height="300"/>
<g>
	<path class="st5" d="M3994-922.8h39v44h42.5v-44h39v126h-39v-51H4033v51h-39V-922.8z"/>
	<path class="st5" d="M4129.3-922.8h36.3l47.5,69.8v-69.8h36.8v126h-36.8l-47-69.3v69.3h-36.5v-126
		C4129.6-922.8,4129.3-922.8,4129.3-922.8z"/>
	<path class="st5" d="M3994-783.3h60.1c12,0,21.3,1.5,28.6,4.8c7.3,3,13.3,7.5,18.2,13.3c4.7,5.8,8.3,12.5,10.4,20.3
		s3.1,15.8,3.1,24.5c0,13.5-1.6,24-4.7,31.3c-3.1,7.5-7.5,13.8-13.3,18.8c-5.7,5-11.7,8.3-18.2,10c-8.9,2.3-16.9,3.5-24.2,3.5h-60
		V-783.3L3994-783.3z M4034.6-754.8v69h9.9c8.6,0,14.6-1,18-2.8c3.4-1.8,6.5-5,8.3-9.5c2.1-4.5,3.1-11.8,3.1-21.8
		c0-13.3-2.3-22.5-6.8-27.5c-4.4-5-12-7.5-22.6-7.5C4044.5-754.8,4034.6-754.8,4034.6-754.8z"/>
	<path class="st5" d="M4131.5-783.3h118.3v31H4210v94.8h-39V-752h-39.8v-31.3H4131.5L4131.5-783.3z"/>
</g>
<g>
	<polygon points="3061.8,-17.7 3037.9,-17.7 3037.9,-42.5 3016.1,-42.5 3016.1,28.2 3037.9,28.2 3037.9,-0.4 3061.8,-0.4 
		3061.8,28.2 3083.7,28.2 3083.7,-42.5 3061.8,-42.5 	"/>
	<polygon points="3117.7,-42.5 3091.1,28.2 3113.4,28.2 3116.9,16.5 3141.7,16.5 3145.2,28.2 3168.1,28.2 3141.5,-42.5 	"/>
	<polygon points="3222.2,-3.4 3195.6,-42.5 3175.2,-42.5 3175.2,28.2 3195.7,28.2 3195.7,-10.6 3222.2,28.2 3242.7,28.2 
		3242.7,-42.5 3222.2,-42.5 	"/>
	<path d="M3315.2-32.4c-2.6-3.2-5.8-5.7-9.8-7.5c-3.9-1.7-9.1-2.6-15.5-2.6h-32.4v70.7h32.4c3.9,0,8.2-0.6,13-1.9
		c3.5-0.9,6.8-2.8,9.8-5.6c3.1-2.8,5.4-6.3,7.2-10.5c1.7-4.2,2.6-10,2.6-17.6c0-4.8-0.6-9.4-1.7-13.7S3317.8-29.2,3315.2-32.4z"/>
	<polygon points="3329.1,-42.5 3329.1,-25 3351.3,-25 3351.3,28.2 3373.2,28.2 3373.2,-25 3395.5,-25 3395.5,-42.5 	"/>
</g>
<image style="overflow:visible;" width="750" height="1334" xlink:href="../Downloads/IMG_6769.PNG"  transform="matrix(0.2228 0 0 0.2228 4438.8257 -427.1476)">
</image>
<image style="overflow:visible;" width="600" height="600" xlink:href="../Downloads/IMG_6770.PNG"  transform="matrix(0.4491 0 0 0.4491 4438.8257 -195.3798)">
</image>
<path class="st6" d="M5526.2-407.8c-20.3,21.9-37.8,40.9-55.4,59.7c-4.1,4.4-3.4,9.7-2.8,14.5c1.1,9-2.5,10.8-10.8,10.8
	c-23.8,0-23.8,0.4-23.8-23c0-43.2,0.2-86.3-0.2-129.5c-0.1-9,1.3-13.2,11.8-13c22.8,0.5,22.8-0.1,22.8,22.5c0,22.2,0,44.5,0,66.6
	c4.8,1.9,5.9-2.3,7.7-4.3c12.7-13.5,24.7-27.7,37.8-40.8c9.5-9.4,15.2-19.5,12.8-33.1c-1.5-8.6,1.8-10.9,10.5-10.8
	c23.4,0.3,23.4-0.2,23.4,23.2c0,43.2-0.2,86.3,0.2,129.5c0.1,9.1-1.3,13.1-11.9,12.8c-22.2-0.8-22.2-0.1-22.2-22.9
	C5526.2-365.2,5526.2-384.6,5526.2-407.8z"/>
<path class="st6" d="M5792.9-396c0-29.4,0.3-54.9-0.2-80.3c-0.2-8.6,1.5-12,11.2-11.9c23.4,0.4,23.4-0.2,23.4,23.3
	c0,43.1-0.4,86.3,0.3,129.4c0.2,10.9-3.2,14.1-13.3,12.6c-3.6-0.6-7.5-0.6-11.1,0c-9,1.4-11.7-2.7-10.4-10.9
	c1.4-8.5-2.2-14.7-8.1-20.8c-16.3-16.9-32-34.5-50.1-54.1c0,26.4-0.4,49.8,0.2,73.2c0.2,9.1-1.4,13-11.8,12.7
	c-22.8-0.5-22.8,0.1-22.8-22.5c0-43.6,0.3-87.2-0.3-130.8c-0.1-9.9,2.8-13.5,12.5-12c3.2,0.5,6.6,0.5,9.7-0.1
	c11-2,14.1,3.5,12.4,13.1c-2,11.8,3.1,20.1,11.1,28.2C5761.1-431.1,5775.6-414.7,5792.9-396z"/>
<image style="overflow:visible;" width="556" height="202" xlink:href="../Desktop/Screen Shot 2018-05-30 at 6.25.34 PM.png"  transform="matrix(1.1544 0 0 1.1544 4476.8599 -786.4122)">
</image>
<path class="st7" d="M4674.6-1745.1"/>
<path class="st8" d="M4767.1-1731.5c-5.1-6.9-15.1-17.7-22-24.9l-0.1-4.6c0-1,0.8-1.7,1.7-1.7l37.8,0.2l-53.7-64.3l-90.6,0
	c-14.6-0.2-22.5,17.1-12.8,28l40.5,45.9l49.5,57.8l-0.1,0c2.1,2.9,3.4,6.5,3.4,10.4c0,9.7-7.9,17.6-17.6,17.6
	c-9.7,0-17.6-7.9-17.6-17.6c0-5.9,2.9-11.1,7.4-14.3l-40.1-46.8c-17.6,14.5-28.8,36.5-28.8,61.1c0,43.7,35.4,79.1,79.1,79.1
	s79.1-35.4,79.1-79.1c0-17.4-5.6-33.4-15.1-46.5C4767.2-1731.3,4767.2-1731.4,4767.1-1731.5z"/>
<path d="M5084-1912.7c-5.1-6.9-15.1-17.7-22-24.9l-0.1-4.6c0-1,0.8-1.7,1.7-1.7l37.8,0.2l-53.7-64.3l-90.6,0
	c-14.6-0.2-22.5,17.1-12.8,28l90.1,103.7l-0.1,0c2.1,2.9,3.4,6.5,3.4,10.4c0,9.7-7.9,17.6-17.6,17.6s-17.6-7.9-17.6-17.6
	c0-5.9,2.9-11.1,7.4-14.3l-40.1-46.8c-17.6,14.5-28.8,36.5-28.8,61.1c0,43.7,35.4,79.1,79.1,79.1s79.1-35.4,79.1-79.1
	c0-17.4-5.6-33.4-15.1-46.5C5084.2-1912.4,5084.1-1912.6,5084-1912.7z"/>
<path d="M5227-1912.7c-5.1-6.9-15.1-17.7-22-24.9l-0.1-4.6c0-1,0.8-1.7,1.7-1.7l37.8,0.2l-53.7-64.3l-90.6,0
	c-14.6-0.2-22.5,17.1-12.8,28l90.1,103.7l-0.1,0c2.1,2.9,3.4,6.5,3.4,10.4c0,9.7-7.9,17.6-17.6,17.6s-17.6-7.9-17.6-17.6
	c0-5.9,2.9-11.1,7.4-14.3l-40.1-46.8c-17.6,14.5-28.8,36.5-28.8,61.1c0,43.7,35.4,79.1,79.1,79.1s79.1-35.4,79.1-79.1
	c0-17.4-5.6-33.4-15.1-46.5C5227.2-1912.4,5227.1-1912.6,5227-1912.7z"/>
<path d="M4888.7-2148.2c-5.1-6.9-15.1-17.7-22-24.9l-0.1-4.6c0-1,0.8-1.7,1.7-1.7l37.8,0.2l-53.7-64.3l-90.6,0
	c-14.6-0.2-22.5,17.1-12.8,28l90.1,103.7l-0.1,0c2.1,2.9,3.4,6.5,3.4,10.4c0,9.7-7.9,17.6-17.6,17.6c-9.7,0-17.6-7.9-17.6-17.6
	c0-5.9,2.9-11.1,7.4-14.3l-40.1-46.8c-17.6,14.5-28.8,36.5-28.8,61.1c0,43.7,35.4,79.2,79.1,79.2c43.7,0,79.2-35.4,79.2-79.2
	c0-17.4-5.6-33.4-15.1-46.5C4888.8-2147.9,4888.8-2148,4888.7-2148.2z"/>
<path d="M5421.4-1918.7c-5.1-6.9-81.5-95.3-81.5-95.3l-45.3,0l-37.6,0l65.2,73.9l49.5,57.8l-0.1,0c2.1,2.9,3.4,6.5,3.4,10.4
	c0,9.7-7.9,17.6-17.6,17.6s-17.6-7.9-17.6-17.6c0-5.9,2.9-11.1,7.4-14.3l-40.1-46.8c-17.6,14.5-28.8,36.5-28.8,61.1
	c0,43.7,35.4,79.1,79.1,79.1s79.1-35.4,79.1-79.1c0-17.4-5.6-33.4-15.1-46.5C5421.6-1918.4,5421.5-1918.6,5421.4-1918.7z"/>
<path d="M5273.7-1642.7c-5.1-6.9-15.1-17.7-22-24.9l-0.1-4.6c0-1,0.8-1.7,1.7-1.7l37.8,0.2l-53.7-64.3l-90.6,0
	c-14.6-0.2-22.5,17.1-12.8,28l90.1,103.7l-0.1,0c2.1,2.9,3.4,6.5,3.4,10.4c0,9.7-7.9,17.6-17.6,17.6c-9.7,0-17.6-7.9-17.6-17.6
	c0-5.9,2.9-11.1,7.4-14.3l-40.1-46.8c-17.6,14.5-28.8,36.5-28.8,61.1c0,43.7,35.4,79.1,79.1,79.1s79.1-35.4,79.1-79.1
	c0-17.4-5.6-33.4-15.1-46.5C5273.8-1642.4,5273.8-1642.6,5273.7-1642.7z"/>
<path d="M5421.4-1642.7c-5.1-6.9-81.5-95.3-81.5-95.3l-45.3,0l-37.6,0l65.2,73.9l49.5,57.8l-0.1,0c2.1,2.9,3.4,6.5,3.4,10.4
	c0,9.7-7.9,17.6-17.6,17.6s-17.6-7.9-17.6-17.6c0-5.9,2.9-11.1,7.4-14.3l-40.1-46.8c-17.6,14.5-28.8,36.5-28.8,61.1
	c0,43.7,35.4,79.1,79.1,79.1s79.1-35.4,79.1-79.1c0-17.4-5.6-33.4-15.1-46.5C5421.6-1642.4,5421.5-1642.6,5421.4-1642.7z"/>
<path d="M5564.8-1918.7c-5.1-6.9-81.5-95.3-81.5-95.3l-45.3,0l-37.6,0l65.2,73.9l49.5,57.8l-0.1,0c2.1,2.9,3.4,6.5,3.4,10.4
	c0,9.7-7.9,17.6-17.6,17.6c-9.7,0-17.6-7.9-17.6-17.6c0-5.9,2.9-11.1,7.4-14.3l-40.1-46.8c-17.6,14.5-28.8,36.5-28.8,61.1
	c0,43.7,35.4,79.1,79.1,79.1s79.1-35.4,79.1-79.1c0-17.4-5.6-33.4-15.1-46.5C5564.9-1918.4,5564.9-1918.6,5564.8-1918.7z"/>
<path class="st8" d="M4500.4-1688.2c-5.1-6.9-15.1-17.7-22-24.9l-0.1-4.6c0-1,0.8-1.7,1.7-1.7l31.3,0.2c2.6,0,4-3,2.3-4.9
	l-48.6-58.2c-0.6-0.7-1.4-1.1-2.3-1.1l-89.2,0c-14.6-0.2-22.5,17.1-12.8,28l40.5,45.9l49.5,57.8l-0.1,0c2.6,3.5,3.9,7.9,3.3,12.7
	c-1,7.9-7.5,14.2-15.5,15.1c-10.6,1.1-19.5-7.1-19.5-17.5c0-5.9,2.9-11.1,7.4-14.3l-40.1-46.8c-17.7,14.5-28.9,36.6-28.8,61.3
	c0.1,42.7,34.6,78,77.2,79c44.6,1,81.1-34.8,81.1-79.1c0-17.4-5.6-33.4-15.1-46.5C4500.6-1687.9,4500.5-1688,4500.4-1688.2z"/>
<g>
	<path d="M5470.5-1729.4l-9.6,8.9c-1,1-2.6,0.9-3.6-0.1l0,0c-1-1-0.9-2.6,0.1-3.6l9.6-8.9c1-1,2.6-0.9,3.6,0.1l0,0
		C5471.5-1732,5471.5-1730.4,5470.5-1729.4z"/>
	<path d="M5463.3-1733.6l-6.5,6c-1,1-2.6,0.9-3.6-0.1l0,0c-1-1-0.9-2.6,0.1-3.6l6.5-6c1-1,2.6-0.9,3.6,0.1l0,0
		C5464.4-1736.1,5464.4-1734.5,5463.3-1733.6z"/>
	<path d="M5474.6-1722.3l-6.5,6c-1,1-2.6,0.9-3.6-0.1l0,0c-1-1-0.9-2.6,0.1-3.6l6.5-6c1-1,2.6-0.9,3.6,0.1l0,0
		C5475.7-1724.9,5475.6-1723.3,5474.6-1722.3z"/>
</g>
<path d="M5258.7-1800.5l-9.6,8.9c-1,1-2.6,0.9-3.6-0.1l0,0c-1-1-0.9-2.6,0.1-3.6l9.6-8.9c1-1,2.6-0.9,3.6,0.1l0,0
	C5259.8-1803,5259.7-1801.4,5258.7-1800.5z"/>
<g>
	<path d="M5503.9-1877.2l-9.6,8.9c-1,1-2.6,0.9-3.6-0.1l0,0c-1-1-0.9-2.6,0.1-3.6l9.6-8.9c1-1,2.6-0.9,3.6,0.1l0,0
		C5504.9-1879.8,5504.9-1878.2,5503.9-1877.2z"/>
	<path d="M5509.3-1871.2l-9.6,8.9c-1,1-2.6,0.9-3.6-0.1v0c-1-1-0.9-2.6,0.1-3.6l9.6-8.9c1-1,2.6-0.9,3.6,0.1l0,0
		C5510.4-1873.8,5510.4-1872.2,5509.3-1871.2z"/>
</g>
<g>
	<path d="M5361.8-1877.2l-9.6,8.9c-1,1-2.6,0.9-3.6-0.1l0,0c-1-1-0.9-2.6,0.1-3.6l9.6-8.9c1-1,2.6-0.9,3.6,0.1l0,0
		C5362.8-1879.8,5362.8-1878.2,5361.8-1877.2z"/>
	<path d="M5367.2-1871.2l-9.6,8.9c-1,1-2.6,0.9-3.6-0.1v0c-1-1-0.9-2.6,0.1-3.6l9.6-8.9c1-1,2.6-0.9,3.6,0.1l0,0
		C5368.3-1873.8,5368.3-1872.2,5367.2-1871.2z"/>
</g>
<g>
	<path d="M5166.8-1870.2l-9.6,8.9c-1,1-2.6,0.9-3.6-0.1v0c-1-1-0.9-2.6,0.1-3.6l9.6-8.9c1-1,2.6-0.9,3.6,0.1l0,0
		C5167.9-1872.8,5167.8-1871.2,5166.8-1870.2z"/>
	<path d="M5172.3-1864.3l-9.6,8.9c-1,1-2.6,0.9-3.6-0.1l0,0c-1-1-0.9-2.6,0.1-3.6l9.6-8.9c1-1,2.6-0.9,3.6,0.1l0,0
		C5173.4-1866.8,5173.3-1865.2,5172.3-1864.3z"/>
</g>
<g>
	<path d="M5024.7-1870.2l-9.6,8.9c-1,1-2.6,0.9-3.6-0.1v0c-1-1-0.9-2.6,0.1-3.6l9.6-8.9c1-1,2.6-0.9,3.6,0.1l0,0
		C5025.8-1872.8,5025.7-1871.2,5024.7-1870.2z"/>
	<path d="M5030.2-1864.3l-9.6,8.9c-1,1-2.6,0.9-3.6-0.1l0,0c-1-1-0.9-2.6,0.1-3.6l9.6-8.9c1-1,2.6-0.9,3.6,0.1l0,0
		C5031.3-1866.8,5031.2-1865.2,5030.2-1864.3z"/>
</g>
<path d="M5251.6-1804.6l-6.5,6c-1,1-2.6,0.9-3.6-0.1l0,0c-1-1-0.9-2.6,0.1-3.6l6.5-6c1-1,2.6-0.9,3.6,0.1h0
	C5252.7-1807.2,5252.6-1805.6,5251.6-1804.6z"/>
<path d="M5262.8-1793.4l-6.5,6c-1,1-2.6,0.9-3.6-0.1l0,0c-1-1-0.9-2.6,0.1-3.6l6.5-6c1-1,2.6-0.9,3.6,0.1l0,0
	C5263.9-1795.9,5263.8-1794.3,5262.8-1793.4z"/>
<g>
	<path d="M5361-1601.2l-9.6,8.9c-1,1-2.6,0.9-3.6-0.1l0,0c-1-1-0.9-2.6,0.1-3.6l9.6-8.9c1-1,2.6-0.9,3.6,0.1l0,0
		C5362.1-1603.7,5362.1-1602.1,5361-1601.2z"/>
	<path d="M5366.5-1595.2l-9.6,8.9c-1,1-2.6,0.9-3.6-0.1l0,0c-1-1-0.9-2.6,0.1-3.6l9.6-8.9c1-1,2.6-0.9,3.6,0.1l0,0
		C5367.6-1597.8,5367.6-1596.2,5366.5-1595.2z"/>
</g>
<g>
	<path d="M5829.7-1567.1c0.6-8.6-0.6-125.4-0.6-125.4l-34.6-29.3l-28.7-24.3l2,98.6l0.5,76.1l-0.1,0c-0.3,3.6-1.6,7.2-4.1,10.1
		c-6.3,7.4-17.4,8.3-24.8,2.1c-7.4-6.3-8.3-17.4-2.1-24.8c3.8-4.5,9.4-6.6,14.9-6.1l-0.4-61.6c-22.8-0.3-45.6,9.2-61.5,28
		c-28.2,33.4-24.1,83.3,9.3,111.5c33.4,28.2,83.3,24.1,111.5-9.3c11.2-13.3,17.3-29.2,18.5-45.3
		C5829.7-1566.8,5829.7-1567,5829.7-1567.1z"/>
	<g>
		<path d="M5756.8-1574.5l-13,0.6c-1.4,0.1-2.6-1-2.7-2.4l0,0c-0.1-1.4,1-2.6,2.4-2.7l13-0.6c1.4-0.1,2.6,1,2.7,2.4l0,0
			C5759.3-1575.7,5758.2-1574.5,5756.8-1574.5z"/>
		<path d="M5757.1-1566.4l-13,0.6c-1.4,0.1-2.6-1-2.7-2.4l0,0c-0.1-1.4,1-2.6,2.4-2.7l13-0.6c1.4-0.1,2.6,1,2.7,2.4l0,0
			C5759.6-1567.6,5758.5-1566.4,5757.1-1566.4z"/>
	</g>
</g>
<g>
	<path d="M5963.7-1567.1c0.6-8.6-0.6-125.4-0.6-125.4l-34.6-29.3l-28.7-24.3l2,98.6l0.5,76.1l-0.1,0c-0.3,3.6-1.6,7.2-4.1,10.1
		c-6.3,7.4-17.4,8.3-24.8,2.1c-7.4-6.3-8.3-17.4-2.1-24.8c3.8-4.5,9.4-6.6,14.9-6.1l-0.4-61.6c-22.8-0.3-45.6,9.2-61.5,28
		c-28.2,33.4-24.1,83.3,9.3,111.5c33.4,28.2,83.3,24.1,111.5-9.3c11.2-13.3,17.3-29.2,18.5-45.3
		C5963.7-1566.8,5963.7-1567,5963.7-1567.1z"/>
	<g>
		<path d="M5890.8-1574.5l-13,0.6c-1.4,0.1-2.6-1-2.7-2.4l0,0c-0.1-1.4,1-2.6,2.4-2.7l13-0.6c1.4-0.1,2.6,1,2.7,2.4l0,0
			C5893.3-1575.7,5892.2-1574.5,5890.8-1574.5z"/>
		<path d="M5891.1-1566.4l-13,0.6c-1.4,0.1-2.6-1-2.7-2.4l0,0c-0.1-1.4,1-2.6,2.4-2.7l13-0.6c1.4-0.1,2.6,1,2.7,2.4l0,0
			C5893.6-1567.6,5892.5-1566.4,5891.1-1566.4z"/>
	</g>
</g>
<g>
	<path d="M5213.2-1601.2l-9.6,8.9c-1,1-2.6,0.9-3.6-0.1l0,0c-1-1-0.9-2.6,0.1-3.6l9.6-8.9c1-1,2.6-0.9,3.6,0.1l0,0
		C5214.3-1603.7,5214.2-1602.1,5213.2-1601.2z"/>
	<path d="M5218.7-1595.2l-9.6,8.9c-1,1-2.6,0.9-3.6-0.1l0,0c-1-1-0.9-2.6,0.1-3.6l9.6-8.9c1-1,2.6-0.9,3.6,0.1l0,0
		C5219.8-1597.8,5219.7-1596.2,5218.7-1595.2z"/>
</g>
<g>
	<path d="M4074.5-3112.5c-15.1-20.5-43.2-51.3-65.1-74.4c-4.6-4.8-7.2-11.2-7.4-17.8l-0.1-4.9c0-3.1,2.6-5.7,5.7-5.6l88.8,0.6
		c14,0.1,21.7-16.2,12.7-27l-144-172.5c-6.3-7.5-15.5-11.8-25.3-11.8l-282.6,0c-48.1-0.6-74.1,56.1-42.2,92.2l296.3,341.2l-0.2,0.1
		c8.4,11.5,12.8,26.2,10.7,41.9c-3.5,26-24.7,46.8-50.9,49.6c-34.8,3.7-64.2-23.4-64.2-57.5c0-14.5,5.4-27.7,14.2-37.9
		c5.3-6,5-15.1-0.2-21.2l-99.2-115.7c-12.9-15.1-36.1-15.3-49.4-0.6c-42.3,46.4-68.1,108.2-68,175.9
		c0.3,140.4,113.8,256.5,254.1,259.8c146.7,3.5,266.7-114.4,266.7-260.3c0-57.2-18.5-110-49.7-153
		C4075-3111.7,4074.7-3112.1,4074.5-3112.5z"/>
	<path d="M4560.6-3112.5c-14.8-20.1-211.6-248.2-258.2-302.2c-6.2-7.2-15.3-11.4-24.9-11.4l-134.1,0l-50.7,0
		c-28.3,0-43.4,33.4-24.7,54.7l166.4,188.5l163,190.2l-0.2,0.1c8.4,11.5,12.8,26.2,10.7,41.9c-3.5,26-24.7,46.8-50.9,49.6
		c-34.8,3.7-64.2-23.4-64.2-57.5c0-14.5,5.4-27.7,14.2-37.9c5.3-6,5-15.1-0.2-21.2l-99.2-115.7c-12.9-15.1-36.1-15.3-49.4-0.6
		c-42.3,46.4-68.1,108.2-68,175.9c0.3,140.4,113.8,256.5,254.1,259.8c146.7,3.5,266.7-114.4,266.7-260.3c0-57.2-18.5-110-49.7-153
		C4561.2-3111.7,4560.9-3112.1,4560.6-3112.5z"/>
	<g>
		<path d="M4366.2-2979.9l-39.9,37.1c-1,1-2.6,0.9-3.6-0.1l-7.9-8.5c-1-1-0.9-2.6,0.1-3.6l39.9-37.1c1-1,2.6-0.9,3.6,0.1l7.9,8.5
			C4367.3-2982.5,4367.2-2980.9,4366.2-2979.9z"/>
		<path d="M4384.2-2960.2l-39.9,37.1c-1,1-2.6,0.9-3.6-0.1l-7.9-8.5c-1-1-0.9-2.6,0.1-3.6l39.9-37.1c1-1,2.6-0.9,3.6,0.1l7.9,8.5
			C4385.3-2962.8,4385.3-2961.2,4384.2-2960.2z"/>
	</g>
	<g>
		<path d="M3879.8-2979.9l-39.9,37.1c-1,1-2.6,0.9-3.6-0.1l-7.9-8.5c-1-1-0.9-2.6,0.1-3.6l39.9-37.1c1-1,2.6-0.9,3.6,0.1l7.9,8.5
			C3880.9-2982.5,3880.8-2980.9,3879.8-2979.9z"/>
		<path d="M3897.8-2960.2l-39.9,37.1c-1,1-2.6,0.9-3.6-0.1l-7.9-8.5c-1-1-0.9-2.6,0.1-3.6l39.9-37.1c1-1,2.6-0.9,3.6,0.1l7.9,8.5
			C3898.9-2962.8,3898.8-2961.2,3897.8-2960.2z"/>
	</g>
</g>
<g>
	<path d="M2642.2-2885.4l-39.9,37.1c-1,1-2.6,0.9-3.6-0.1l-7.9-8.5c-1-1-0.9-2.6,0.1-3.6l39.9-37.1c1-1,2.6-0.9,3.6,0.1l7.9,8.5
		C2643.3-2887.9,2643.2-2886.3,2642.2-2885.4z"/>
	<path d="M2660.2-2865.7l-39.9,37.1c-1,1-2.6,0.9-3.6-0.1l-7.9-8.5c-1-1-0.9-2.6,0.1-3.6l39.9-37.1c1-1,2.6-0.9,3.6,0.1l7.9,8.5
		C2661.3-2868.3,2661.3-2866.7,2660.2-2865.7z"/>
</g>
<g>
	<path d="M4028.1-2148.2c-4.6-6.2-13.1-15.6-19.8-22.6c-1.4-1.5-2.2-3.4-2.2-5.4l0-1.5c0-1,0.8-1.7,1.7-1.7l27,0.2
		c4.3,0,6.6-4.9,3.9-8.2l-43.8-52.4c-1.9-2.3-4.7-3.6-7.7-3.6l-85.9,0c-14.6-0.2-22.5,17.1-12.8,28l90.1,103.7l-0.1,0
		c2.6,3.5,3.9,7.9,3.3,12.7c-1,7.9-7.5,14.2-15.5,15.1c-10.6,1.1-19.5-7.1-19.5-17.5c0-4.4,1.6-8.4,4.3-11.5
		c1.6-1.8,1.5-4.6-0.1-6.4l-30.2-35.2c-3.9-4.6-11-4.6-15-0.2c-12.9,14.1-20.7,32.9-20.7,53.5c0.1,42.7,34.6,78,77.2,79
		c44.6,1,81.1-34.8,81.1-79.1c0-17.4-5.6-33.4-15.1-46.5C4028.3-2147.9,4028.2-2148,4028.1-2148.2z"/>
	<g>
		<path d="M3967.7-2106.7l-9.6,8.9c-1,1-2.6,0.9-3.6-0.1l0,0c-1-1-0.9-2.6,0.1-3.6l9.6-8.9c1-1,2.6-0.9,3.6,0.1l0,0
			C3968.8-2109.2,3968.7-2107.6,3967.7-2106.7z"/>
		<path d="M3973.2-2100.7l-9.6,8.9c-1,1-2.6,0.9-3.6-0.1h0c-1-1-0.9-2.6,0.1-3.6l9.6-8.9c1-1,2.6-0.9,3.6,0.1l0,0
			C3974.2-2103.2,3974.2-2101.6,3973.2-2100.7z"/>
	</g>
	<path d="M4170.1-2148.2c-4.6-6.2-13.1-15.6-19.8-22.6c-1.4-1.5-2.2-3.4-2.2-5.4l0-1.5c0-1,0.8-1.7,1.7-1.7l27,0.2
		c4.3,0,6.6-4.9,3.9-8.2l-43.8-52.4c-1.9-2.3-4.7-3.6-7.7-3.6l-85.9,0c-14.6-0.2-22.5,17.1-12.8,28l90.1,103.7l-0.1,0
		c2.6,3.5,3.9,7.9,3.3,12.7c-1,7.9-7.5,14.2-15.5,15.1c-10.6,1.1-19.5-7.1-19.5-17.5c0-4.4,1.6-8.4,4.3-11.5
		c1.6-1.8,1.5-4.6-0.1-6.4l-30.2-35.2c-3.9-4.6-11-4.6-15-0.2c-12.9,14.1-20.7,32.9-20.7,53.5c0.1,42.7,34.6,78,77.2,79
		c44.6,1,81.1-34.8,81.1-79.1c0-17.4-5.6-33.4-15.1-46.5C4170.3-2147.9,4170.2-2148,4170.1-2148.2z"/>
	<g>
		<path d="M4109.7-2106.7l-9.6,8.9c-1,1-2.6,0.9-3.6-0.1l0,0c-1-1-0.9-2.6,0.1-3.6l9.6-8.9c1-1,2.6-0.9,3.6,0.1l0,0
			C4110.8-2109.2,4110.7-2107.6,4109.7-2106.7z"/>
		<path d="M4115.2-2100.7l-9.6,8.9c-1,1-2.6,0.9-3.6-0.1l0,0c-1-1-0.9-2.6,0.1-3.6l9.6-8.9c1-1,2.6-0.9,3.6,0.1l0,0
			C4116.2-2103.2,4116.2-2101.6,4115.2-2100.7z"/>
	</g>
</g>
<g>
	<path d="M3314.1-1482c-5.4-7.4-15.6-18.5-23.5-26.8c-1.6-1.7-2.6-4-2.7-6.4l0-1.8c0-1.1,0.9-2,2.1-2l32,0.2c5.1,0,7.8-5.9,4.6-9.7
		l-51.9-62.2c-2.3-2.7-5.6-4.3-9.1-4.3l-101.9,0c-17.3-0.2-26.7,20.2-15.2,33.2l106.8,123.1l-0.1,0.1c3,4.1,4.6,9.4,3.9,15.1
		c-1.2,9.4-8.9,16.9-18.3,17.9c-12.6,1.4-23.2-8.4-23.2-20.7c0-5.2,1.9-10,5.1-13.7c1.9-2.2,1.8-5.4-0.1-7.6l-35.8-41.7
		c-4.7-5.4-13-5.5-17.8-0.2c-15.3,16.7-24.6,39-24.5,63.5c0.1,50.6,41,92.5,91.6,93.7c52.9,1.2,96.2-41.3,96.2-93.9
		c0-20.6-6.7-39.7-17.9-55.2C3314.3-1481.8,3314.2-1481.9,3314.1-1482z"/>
	<g>
		<path d="M3242.7-1433.1l-12,11.2c-1,1-2.6,0.9-3.6-0.1l-0.6-0.7c-1-1-0.9-2.6,0.1-3.6l12-11.2c1-1,2.6-0.9,3.6,0.1l0.6,0.7
			C3243.8-1435.7,3243.8-1434.1,3242.7-1433.1z"/>
		<path d="M3249.2-1426l-12,11.2c-1,1-2.6,0.9-3.6-0.1l-0.6-0.7c-1-1-0.9-2.6,0.1-3.6l12-11.2c1-1,2.6-0.9,3.6,0.1l0.6,0.7
			C3250.3-1428.6,3250.3-1427,3249.2-1426z"/>
	</g>
	<path d="M3482.6-1482c-5.4-7.4-15.6-18.5-23.5-26.8c-1.6-1.7-2.6-4-2.7-6.4l0-1.8c0-1.1,0.9-2,2.1-2l32,0.2c5.1,0,7.8-5.9,4.6-9.7
		l-51.9-62.2c-2.3-2.7-5.6-4.3-9.1-4.3l-101.9,0c-17.3-0.2-26.7,20.2-15.2,33.2l106.8,123.1l-0.1,0.1c3,4.1,4.6,9.4,3.9,15.1
		c-1.2,9.4-8.9,16.9-18.3,17.9c-12.6,1.4-23.2-8.4-23.2-20.7c0-5.2,1.9-10,5.1-13.7c1.9-2.2,1.8-5.4-0.1-7.6l-35.8-41.7
		c-4.7-5.4-13-5.5-17.8-0.2c-15.3,16.7-24.6,39-24.5,63.5c0.1,50.6,41,92.5,91.6,93.7c52.9,1.2,96.2-41.3,96.2-93.9
		c0-20.6-6.7-39.7-17.9-55.2C3482.8-1481.8,3482.7-1481.9,3482.6-1482z"/>
	<g>
		<path d="M3411.2-1433.1l-12,11.2c-1,1-2.6,0.9-3.6-0.1l-0.6-0.7c-1-1-0.9-2.6,0.1-3.6l12-11.2c1-1,2.6-0.9,3.6,0.1l0.6,0.7
			C3412.3-1435.7,3412.2-1434.1,3411.2-1433.1z"/>
		<path d="M3417.7-1426l-12,11.2c-1,1-2.6,0.9-3.6-0.1l-0.6-0.7c-1-1-0.9-2.6,0.1-3.6l12-11.2c1-1,2.6-0.9,3.6,0.1l0.6,0.7
			C3418.8-1428.6,3418.8-1427,3417.7-1426z"/>
	</g>
</g>
<g>
	<path d="M5907.7-2001.2c-5.1-6.9-15.1-17.7-22-24.9l-0.1-4.6c0-1,0.8-1.7,1.7-1.7l37.8,0.2l-53.7-64.3l-90.6,0
		c-14.6-0.2-22.5,17.1-12.8,28l90.1,103.7l-0.1,0c2.1,2.9,3.4,6.5,3.4,10.4c0,9.7-7.9,17.6-17.6,17.6c-9.7,0-17.6-7.9-17.6-17.6
		c0-5.9,2.9-11.1,7.4-14.3l-40.1-46.8c-17.6,14.5-28.8,36.5-28.8,61.1c0,43.7,35.4,79.1,79.1,79.1s79.1-35.4,79.1-79.1
		c0-17.4-5.6-33.4-15.1-46.5C5907.8-2001,5907.8-2001.1,5907.7-2001.2z"/>
	<g>
		<path d="M5847.2-1959.7l-9.6,8.9c-1,1-2.6,0.9-3.6-0.1l0,0c-1-1-0.9-2.6,0.1-3.6l9.6-8.9c1-1,2.6-0.9,3.6,0.1l0,0
			C5848.3-1962.3,5848.2-1960.6,5847.2-1959.7z"/>
		<path d="M5852.7-1953.7l-9.6,8.9c-1,1-2.6,0.9-3.6-0.1l0,0c-1-1-0.9-2.6,0.1-3.6l9.6-8.9c1-1,2.6-0.9,3.6,0.1l0,0
			C5853.8-1956.3,5853.7-1954.7,5852.7-1953.7z"/>
	</g>
</g>
<text transform="matrix(1 0 0 1 1096.0179 -489.1363)" style="font-family:'AmsiProNarw-Ultra'; font-size:190.9086px; letter-spacing:38;">HANDT</text>
<g>
	<path d="M5457.6-58.4h-17.4v34c0,3.3-1.6,4.9-4.9,4.9h-19.2c-3.3,0-4.9-1.6-4.9-4.9v-92.2c0-3.3,1.6-4.9,4.9-4.9h19.2
		c3.3,0,4.9,1.6,4.9,4.9v32.4h17.4v-32.4c0-3.3,1.6-4.9,4.9-4.9h19c3.3,0,4.9,1.6,4.9,4.9v92.2c0,3.3-1.6,4.9-4.9,4.9h-19
		c-3.3,0-4.9-1.6-4.9-4.9V-58.4z"/>
	<path d="M5550.2-121.5c4.2,0,5.8,1.9,6.5,4.9l22.5,91.5c0.9,3.5-0.6,5.6-3.9,5.6h-19.9c-3.5,0-4.9-1.6-5.5-4.6l-2.6-11.8h-20.9
		l-2.4,11.8c-0.7,3-2.2,4.6-5.6,4.6h-19.7c-3.3,0-4.9-2.2-4-5.6l22.6-91.5c0.7-3,2.2-4.9,6.3-4.9H5550.2z M5543.8-60.3l-6.6-33h-0.6
		l-7.1,33H5543.8z"/>
	<path d="M5664.5-24.4c0,3.3-1.6,4.9-4.9,4.9h-17.4c-3.5,0-5-1-6.2-3.6l-20.7-43.4v42.1c0,3.3-1.6,4.9-4.9,4.9h-18.1
		c-3.3,0-4.9-1.6-4.9-4.9v-92.2c0-3.3,1.6-4.9,4.9-4.9h17.3c3.5,0,5,1,6.2,3.6l20.9,43.4v-42.1c0-3.3,1.6-4.9,4.9-4.9h18.1
		c3.3,0,4.9,1.6,4.9,4.9V-24.4z"/>
	<path d="M5682-19.5c-3.3,0-4.9-1.6-4.9-4.9v-92.2c0-3.3,1.6-4.9,4.9-4.9h28.1c29.7,0,43.8,13,43.8,51c0,37.9-13.8,51-43.5,51H5682z
		 M5706-96v51h3.6c10.8,0,15-4.6,15-25.5c0-21-4.6-25.5-15.3-25.5H5706z"/>
	<path d="M5758.6-116.6c0-3.3,1.6-4.9,4.9-4.9h57.2c3.3,0,4.9,1.6,4.9,4.9v16.1c0,3.3-1.6,4.9-4.9,4.9h-14.1v71.2
		c0,3.3-1.6,4.9-4.9,4.9h-19.2c-3.3,0-4.9-1.6-4.9-4.9v-71.2h-14.1c-3.3,0-4.9-1.6-4.9-4.9V-116.6z"/>
</g>
<text transform="matrix(1 0 0 1 4073.8584 383.3647)" style="font-family:'AmsiProNarw-Ultra'; font-size:144.0233px;">Han’dt</text>
<g>
	<g>
		<g>
			<path d="M1227.6-2908.8c-0.2-0.3-0.4-0.6-0.6-0.9c-11.9-16.2-34.1-40.5-51.4-58.8c-3.6-3.8-5.7-8.8-5.8-14.1l-0.1-3.9
				c0-2.5,2.1-4.5,4.5-4.5l70.1,0.4c11.1,0.1,17.1-12.8,10.1-21.3L1140.6-3148c-4.9-5.9-12.2-9.3-19.9-9.3l-223.1,0
				c-38-0.5-58.5,44.3-33.4,72.8l181.7,209.3c4.6-0.7,9.3-1,14.1-1c53.3,0,96.6,43.2,96.6,96.6s-43.2,96.6-96.6,96.6
				c-53.3,0-96.6-43.2-96.6-96.6c0-33.1,16.7-62.3,42-79.7l-57.1-66.7c-10.2-11.9-28.5-12.1-39-0.5c-33.4,36.6-53.8,85.4-53.7,138.9
				c0.2,110.9,89.9,202.6,200.7,205.2c115.8,2.7,210.6-90.4,210.6-205.6C1266.9-2833.2,1252.3-2874.9,1227.6-2908.8z"/>
		</g>
		<g>
			<path d="M1087.4-2820.2l-69.6,64.7c-7.5,6.9-19.2,6.5-26.1-1l0,0c-6.9-7.5-6.5-19.2,1-26.1l69.6-64.7c7.5-6.9,19.2-6.5,26.1,1
				l0,0C1095.3-2838.9,1094.9-2827.2,1087.4-2820.2z"/>
			<path d="M1127.4-2776.7l-69.6,64.7c-7.5,6.9-19.2,6.5-26.1-1l0,0c-6.9-7.5-6.5-19.2,1-26.1l69.6-64.7c7.5-6.9,19.2-6.5,26.1,1v0
				C1135.3-2795.3,1134.8-2783.6,1127.4-2776.7z"/>
		</g>
	</g>
	<g>
		<g>
			<path d="M1600.3-2908.8c-0.2-0.3-0.4-0.6-0.6-0.9c-11.9-16.2-34.1-40.5-51.4-58.8c-3.6-3.8-5.7-8.8-5.8-14.1l-0.1-3.9
				c0-2.5,2.1-4.5,4.5-4.5l70.1,0.4c11.1,0.1,17.1-12.8,10.1-21.3L1513.4-3148c-4.9-5.9-12.2-9.3-19.9-9.3l-223.1,0
				c-38-0.5-58.5,44.3-33.4,72.8l181.7,209.3c4.6-0.7,9.3-1,14.1-1c53.3,0,96.6,43.2,96.6,96.6s-43.2,96.6-96.6,96.6
				c-53.3,0-96.6-43.2-96.6-96.6c0-33.1,16.7-62.3,42-79.7L1321-2926c-10.2-11.9-28.5-12.1-39-0.5c-33.4,36.6-53.8,85.4-53.7,138.9
				c0.2,110.9,89.9,202.6,200.7,205.2c115.8,2.7,210.6-90.4,210.6-205.6C1639.6-2833.2,1625-2874.9,1600.3-2908.8z"/>
		</g>
		<g>
			<path d="M1460.2-2820.2l-69.6,64.7c-7.5,6.9-19.2,6.5-26.1-1l0,0c-6.9-7.5-6.5-19.2,1-26.1l69.6-64.7c7.5-6.9,19.2-6.5,26.1,1h0
				C1468.1-2838.9,1467.6-2827.2,1460.2-2820.2z"/>
			<path d="M1500.1-2776.7l-69.6,64.7c-7.5,6.9-19.2,6.5-26.1-1l0,0c-6.9-7.5-6.5-19.2,1-26.1l69.6-64.7c7.5-6.9,19.2-6.5,26.1,1
				l0,0C1508-2795.3,1507.6-2783.6,1500.1-2776.7z"/>
		</g>
	</g>
</g>
<g>
	<g>
		<path d="M1925.9-4034.8c-0.2-0.4-0.5-0.7-0.8-1.1c-15.1-20.5-43.2-51.3-65.1-74.4c-4.6-4.8-7.2-11.2-7.4-17.8l-0.1-4.9
			c0-3.1,2.6-5.7,5.7-5.6l88.8,0.6c14,0.1,21.7-16.2,12.7-27l-144-172.5c-6.3-7.5-15.5-11.8-25.3-11.8l-282.6,0
			c-48.1-0.6-74.1,56.1-42.2,92.2l230.1,265c5.8-0.9,11.8-1.3,17.8-1.3c67.6,0,122.3,54.8,122.3,122.3s-54.8,122.3-122.3,122.3
			c-67.6,0-122.3-54.8-122.3-122.3c0-41.9,21.1-78.9,53.2-100.9l-72.4-84.4c-12.9-15.1-36.1-15.3-49.4-0.6
			c-42.3,46.4-68.1,108.2-68,175.9c0.3,140.4,113.8,256.5,254.1,259.8c146.7,3.5,266.7-114.4,266.7-260.3
			C1975.6-3939,1957.1-3991.9,1925.9-4034.8z"/>
	</g>
	<g>
		<path d="M1748.3-3922.7l-88.2,81.9c-9.5,8.8-24.3,8.3-33.1-1.2h0c-8.8-9.5-8.3-24.3,1.2-33.1l88.2-81.9c9.5-8.8,24.3-8.3,33.1,1.2
			h0C1758.4-3946.3,1757.8-3931.5,1748.3-3922.7z"/>
		<path d="M1798.9-3867.5l-88.2,81.9c-9.5,8.8-24.3,8.3-33.1-1.2l0,0c-8.8-9.5-8.3-24.3,1.2-33.1l88.2-81.9
			c9.5-8.8,24.3-8.3,33.1,1.2l0,0C1808.9-3891.1,1808.4-3876.3,1798.9-3867.5z"/>
	</g>
</g>
<g>
	<g>
		<path d="M2393-4034.8c-0.2-0.4-0.5-0.7-0.8-1.1c-14.8-20.1-211.6-248.2-258.2-302.2c-6.2-7.2-15.3-11.4-24.9-11.4l-134.1,0
			l-50.7,0c-28.3,0-43.4,33.4-24.7,54.7l166.4,188.5l98,114.3c6.5-1.1,13.2-1.7,20.1-1.7c67.6,0,122.3,54.8,122.3,122.3
			s-54.8,122.3-122.3,122.3s-122.3-54.8-122.3-122.3c0-41,20.2-77.2,51.1-99.4l-73.6-85.9c-12.9-15.1-36.1-15.3-49.4-0.6
			c-42.3,46.4-68.1,108.2-68,175.9c0.3,140.4,113.8,256.5,254.1,259.8c146.7,3.5,266.7-114.4,266.7-260.3
			C2442.7-3939,2424.2-3991.9,2393-4034.8z"/>
	</g>
	<g>
		<path d="M2218.9-3922.7l-88.2,81.9c-9.5,8.8-24.3,8.3-33.1-1.2l0,0c-8.8-9.5-8.3-24.3,1.2-33.1l88.2-81.9
			c9.5-8.8,24.3-8.3,33.1,1.2l0,0C2228.9-3946.3,2228.4-3931.5,2218.9-3922.7z"/>
		<path d="M2269.5-3867.5l-88.2,81.9c-9.5,8.8-24.3,8.3-33.1-1.2l0,0c-8.8-9.5-8.3-24.3,1.2-33.1l88.2-81.9
			c9.5-8.8,24.3-8.3,33.1,1.2l0,0C2279.5-3891.1,2278.9-3876.3,2269.5-3867.5z"/>
	</g>
</g>
<g>
	<path class="st1" d="M4054.2-1191.8c-68.8,0-133.4-26.8-182-75.4c-48.6-48.6-75.4-113.3-75.4-182s26.8-133.4,75.4-182
		c48.6-48.6,113.3-75.4,182-75.4s133.4,26.8,182,75.4c48.6,48.6,75.4,113.3,75.4,182s-26.8,133.4-75.4,182
		C4187.6-1218.6,4122.9-1191.8,4054.2-1191.8z"/>
	<g>
		<path class="st2" d="M4054.2-1702.6c34.2,0,67.4,6.7,98.6,19.9c30.2,12.8,57.3,31,80.6,54.3c23.3,23.3,41.5,50.4,54.3,80.6
			c13.2,31.2,19.9,64.4,19.9,98.6s-6.7,67.4-19.9,98.6c-12.8,30.2-31,57.3-54.3,80.6c-23.3,23.3-50.4,41.5-80.6,54.3
			c-31.2,13.2-64.4,19.9-98.6,19.9c-34.2,0-67.4-6.7-98.6-19.9c-30.2-12.8-57.3-31-80.6-54.3c-23.3-23.3-41.5-50.4-54.3-80.6
			c-13.2-31.2-19.9-64.4-19.9-98.6s6.7-67.4,19.9-98.6c12.8-30.2,31-57.3,54.3-80.6s50.4-41.5,80.6-54.3
			C3986.8-1695.9,4019.9-1702.6,4054.2-1702.6 M4054.2-1710.6c-144.4,0-261.4,117-261.4,261.4s117,261.4,261.4,261.4
			c144.4,0,261.4-117,261.4-261.4S4198.5-1710.6,4054.2-1710.6L4054.2-1710.6z"/>
	</g>
</g>
<g>
	<path d="M2404.8-1487.2c-5.4-7.3-15.4-18.3-23.3-26.6c-1.6-1.7-2.6-4-2.6-6.4l0-1.8c0-1.1,0.9-2,2.1-2l31.7,0.2
		c5,0,7.8-5.8,4.5-9.6l-51.4-61.6c-2.2-2.7-5.5-4.2-9-4.2l-100.9,0c-17.2-0.2-26.5,20-15.1,32.9l105.8,121.9l-0.1,0.1
		c3,4.1,4.6,9.3,3.8,15c-1.2,9.3-8.8,16.7-18.2,17.7c-12.4,1.3-22.9-8.4-22.9-20.5c0-5.2,1.9-9.9,5.1-13.5c1.9-2.2,1.8-5.4-0.1-7.6
		l-35.4-41.3c-4.6-5.4-12.9-5.5-17.7-0.2c-15.1,16.6-24.3,38.6-24.3,62.9c0.1,50.1,40.6,91.6,90.8,92.8c52.4,1.2,95.3-40.9,95.3-93
		c0-20.4-6.6-39.3-17.8-54.6C2405-1487,2404.9-1487.1,2404.8-1487.2z"/>
	<path d="M2578.5-1487.2c-5.3-7.2-75.6-88.7-92.2-107.9c-2.2-2.6-5.5-4.1-8.9-4.1l-47.9,0l-18.1,0c-10.1,0-15.5,11.9-8.8,19.5
		l59.4,67.3l58.2,67.9l-0.1,0.1c3,4.1,4.6,9.3,3.8,15c-1.2,9.3-8.8,16.7-18.2,17.7c-12.4,1.3-22.9-8.4-22.9-20.5
		c0-5.2,1.9-9.9,5.1-13.5c1.9-2.2,1.8-5.4-0.1-7.6l-35.4-41.3c-4.6-5.4-12.9-5.5-17.7-0.2c-15.1,16.6-24.3,38.6-24.3,62.9
		c0.1,50.1,40.6,91.6,90.8,92.8c52.4,1.2,95.3-40.9,95.3-93c0-20.4-6.6-39.3-17.8-54.6C2578.7-1487,2578.6-1487.1,2578.5-1487.2z"/>
	<circle cx="2329.4" cy="-1432.8" r="10.5"/>
	<circle cx="2503.7" cy="-1432.8" r="10.5"/>
</g>
<text transform="matrix(1 0 0 1 3932.0933 -1273.5056)" style="font-family:'SansSerifBldFLF-Italic'; font-size:52.6075px;">Sumbuddie</text>
<g>
	<path d="M1916.2-1562.4c0,60.6,0,120.6,0,181.5c-21.9,4.2-43.7,8.4-65.6,12.5c-122.8,23-245.5,46.4-368.5,68.5
		c-13.2,2.4-27.8-1.7-41.5-4.2c-134.6-24.9-269.1-50.1-403.7-75.3c-2.7-0.5-5.3-1.3-8.5-2.2c0-4.4,0-8.7,0-12.9
		c0-52.4,0.3-104.8-0.3-157.2c-0.1-8.8,2.9-11.2,10.8-12.7c118.3-22.1,236.5-44.5,354.8-66.8c23.8-4.5,47.5-9.4,71.4-13.2
		c7.9-1.2,16.4-0.5,24.3,1c138.4,26,276.8,52.3,415.2,78.5C1908.1-1564.2,1911.7-1563.4,1916.2-1562.4z M1048.5-1397.6
		c2.4,0.6,4.7,1.3,7.1,1.8c130.6,24.4,261.2,49,391.9,73.1c12.1,2.2,25.2,4.8,37,2.6c119.3-21.7,238.4-44.3,357.6-66.6
		c18.6-3.5,37.1-7,55.5-10.5c0-50.3,0-99.5,0-148.8c-3.4-0.8-6.4-1.5-9.4-2.1c-129.1-24.5-258.1-49-387.2-73.2
		c-12.1-2.3-25.2-5.1-37-3c-102.4,18.6-204.7,38.2-307,57.5c-36.1,6.8-72.1,13.7-108.5,20.6
		C1048.5-1496.5,1048.5-1447.3,1048.5-1397.6z"/>
</g>
<g>
	<g>
		<path d="M1916.2-1140.5c0,60.6,0,120.6,0,181.5c-21.9,4.2-43.7,8.4-65.6,12.5c-122.8,23-245.5,46.4-368.5,68.5
			c-13.2,2.4-27.8-1.7-41.5-4.2c-134.6-24.9-269.1-50.1-403.7-75.3c-2.7-0.5-5.3-1.3-8.5-2.2c0-4.4,0-8.7,0-12.9
			c0-52.4,0.3-104.8-0.3-157.2c-0.1-8.8,2.9-11.2,10.8-12.7c118.3-22.1,236.5-44.5,354.8-66.8c23.8-4.5,47.5-9.4,71.4-13.2
			c7.9-1.2,16.4-0.5,24.3,1c138.4,26,276.8,52.3,415.2,78.5C1908.1-1142.3,1911.7-1141.4,1916.2-1140.5z M1048.5-975.6
			c2.4,0.6,4.7,1.3,7.1,1.8c130.6,24.4,261.2,49,391.9,73.1c12.1,2.2,25.2,4.8,37,2.6c119.3-21.7,238.4-44.3,357.6-66.6
			c18.6-3.5,37.1-7,55.5-10.5c0-50.3,0-99.5,0-148.8c-3.4-0.8-6.4-1.5-9.4-2.1c-129.1-24.5-258.1-49-387.2-73.2
			c-12.1-2.3-25.2-5.1-37-3c-102.4,18.6-204.7,38.2-307,57.5c-36.1,6.8-72.1,13.7-108.5,20.6
			C1048.5-1074.6,1048.5-1025.3,1048.5-975.6z"/>
	</g>
</g>
<g>
	<g>
		<path d="M1916.2-643.5c0,60.6,0,120.6,0,181.5c-21.9,4.2-43.7,8.4-65.6,12.5c-122.8,23-245.5,46.4-368.5,68.5
			c-13.2,2.4-27.8-1.7-41.5-4.2c-134.6-24.9-269.1-50.1-403.7-75.3c-2.7-0.5-5.3-1.3-8.5-2.2c0-4.4,0-8.7,0-12.9
			c0-52.4,0.3-104.8-0.3-157.2c-0.1-8.8,2.9-11.2,10.8-12.7c118.3-22.1,236.5-44.5,354.8-66.8c23.8-4.5,47.5-9.4,71.4-13.2
			c7.9-1.2,16.4-0.5,24.3,1c138.4,26,276.8,52.3,415.2,78.5C1908.1-645.3,1911.7-644.4,1916.2-643.5z M1048.5-478.6
			c2.4,0.6,4.7,1.3,7.1,1.8c130.6,24.4,261.2,49,391.9,73.1c12.1,2.2,25.2,4.8,37,2.6c119.3-21.7,238.4-44.3,357.6-66.6
			c18.6-3.5,37.1-7,55.5-10.5c0-50.3,0-99.5,0-148.8c-3.4-0.8-6.4-1.5-9.4-2.1c-129.1-24.5-258.1-49-387.2-73.2
			c-12.1-2.3-25.2-5.1-37-3c-102.4,18.6-204.7,38.2-307,57.5c-36.1,6.8-72.1,13.7-108.5,20.6
			C1048.5-577.6,1048.5-528.3,1048.5-478.6z"/>
	</g>
</g>
<path d="M3336.9,490.3c1.3-1.7,2.3-4.1,3.9-4.8c7.3-2.9,9.3-7.8,8.8-15.5c-0.7-11.5-0.6-10.7-11.3-15.7c-15-7.1-29.1-7.1-44.1,0
	c-10.5,4.9-10.9,4.1-10.9,15.8c0,0.5,0.1,1,0,1.5c-1.2,6.5,1.1,10.9,7.4,13.1c1.1,0.4,2.2,1,2.9,1.8c0.7,0.9,1.5,2.4,1.3,3.4
	c-0.2,0.8-1.8,1.8-2.8,1.8c-13.5,0.1-27,0.1-40.5,0c-0.9,0-1.7-0.7-2.6-1.1c0.4-1,0.6-2.3,1.4-2.9c2.6-1.8,5.3-3.5,8.1-4.9
	c3.3-1.6,4.6-3.8,4.3-7.5c-0.3-2.9-0.1-5.9-0.1-9.8c-8.7,2.9-16.8,5.7-24.8,8.4c-0.1-0.2-0.2-0.3-0.3-0.5c1-0.7,1.9-1.4,3-2.1
	c23.9-14.2,47.8-28.3,71.7-42.6c2.4-1.5,4.4-2.2,7.2-0.5c24.3,14.6,48.6,28.9,72.9,43.4c0.8,0.5,1.5,1.1,2,2.2
	c-7.9-2.7-15.9-5.4-24.8-8.5c0,4.9-0.2,9.2,0.1,13.4c0.1,1.1,1.7,2.3,2.8,3.1c3.1,2,6.3,3.7,9.4,5.7c0.7,0.4,1.3,1.6,1.2,2.4
	c-0.1,0.6-1.3,1.5-2,1.5c-14.4,0.1-28.9,0.1-43.4,0.1C3337.7,491.2,3337.3,490.7,3336.9,490.3z"/>
<path d="M3262.8,448.2c0-6.3-0.6-11.6,0.1-16.8c1.1-8.5-1.4-14.4-9.8-17.3c-0.8-0.3-1.6-0.7-2.1-1.3c-0.8-0.9-1.3-2-2-3.1
	c1-0.4,2-1.2,3-1.2c13.3-0.1,26.6-0.1,39.9,0c1.1,0,3,1,3,1.6c0,1.3-0.9,2.5-1.5,3.8c-0.1,0.1-0.3,0.2-0.4,0.2
	c-9.2,2.9-10.8,9.7-9.9,18.3c0.2,1.7-1.5,4.3-3,5.4C3274.9,441.3,3269.2,444.4,3262.8,448.2z"/>
<path d="M3338.3,408.5c14.1,0,28.2,0,42.3,0.1c1,0,1.9,0.8,2.9,1.3c-0.6,1-1,2.4-1.9,3c-2.6,1.8-5.3,3.5-8.1,4.9
	c-3,1.4-3.8,3.6-3.8,6.8c0.2,7.5,0.1,14.9,0.1,23.6c-7-4.2-13.2-7.8-19.3-11.6c-0.6-0.4-0.9-1.7-0.9-2.6c-0.1-1.8-0.3-3.7,0-5.5
	c1-6.3-1.2-10.4-7.2-12.8C3339.7,414.6,3336.3,413.4,3338.3,408.5z"/>
<g>
	<g>
		<path d="M1459.3-1971.2h32.8v46.2h26.7v-46.2h32.8v124.1h-32.8v-49.3h-26.7v49.3h-32.8V-1971.2z"/>
		<path d="M1626.9-1971.2h39.7l37.4,124.1h-34.7l-13.9-60.3c-2.7-11.8-6.3-26.7-9-39.3h-0.8c-2.7,12.6-5.9,27.5-8.6,39.3l-13.9,60.3
			h-33.6L1626.9-1971.2z M1616.4-1898.8h60.3v25.4h-60.3V-1898.8z"/>
		<path d="M1742.2-1971.2h33.2l20.8,55.4l10.1,27.9h0.8c-1.5-13.4-4.6-32.1-4.6-47.3v-35.9h31.3v124.1h-33.2l-20.8-55.6l-10.1-27.7
			h-0.8c1.5,14.1,4.6,32.1,4.6,47.3v35.9h-31.3V-1971.2z"/>
		<path d="M1884.2-1971.2h35.7c35.5,0,60.5,17.6,60.5,61.5s-25,62.6-58.6,62.6h-37.6V-1971.2z M1918.2-1873.4
			c15.8,0,28.6-7.3,28.6-36.3s-12.8-35.1-28.6-35.1h-1.1v71.4H1918.2z"/>
		<path d="M2054.2-1943.7h-35.7v-27.5h104.2v27.5H2087v96.6h-32.8V-1943.7z"/>
	</g>
</g>
<g>
	<g>
		<path d="M1172.5-2176.6h30.5l-9.5,46.6h30.5l9.2-46.6h30.5l-24.8,124.1h-30.5l10.3-50.8h-30.5l-9.9,50.8h-30.5L1172.5-2176.6z"/>
		<path d="M1268-2087.2c0-35.1,24.4-63,50.8-63c12.2,0,21,4.6,25.2,11.8h0.8l4.2-9.5h24.4l-19.1,95.5h-24.8v-12.6h-0.8
			c-8.8,9.5-19.9,14.9-30,14.9C1279.8-2050.2,1268-2063.6,1268-2087.2z M1331-2088.4l6.3-29.8c-2.7-5-8.8-7.3-12.8-7.3
			c-13,0-24.8,14.1-24.8,34.4c0,11.3,4.2,16,10.7,16C1316.4-2075,1324.5-2078.8,1331-2088.4z"/>
		<path d="M1397.4-2147.9h24.6l-0.6,15.3h0.8c8.8-8.8,22.9-17.6,35.1-17.6c15.7,0,24.8,8.4,24.8,24.8c0,4.2-0.6,9.2-1.5,13.7
			l-11.8,59.2h-30.5l11.1-55.4c0.8-3.4,1.3-6.3,1.3-8.6c0-5.3-2.9-7.8-7.8-7.8c-6.3,0-15.1,5-22.5,14.9l-11.1,56.9h-30.5
			L1397.4-2147.9z"/>
		<path d="M1611.6-2087.2c0-35.1,24.4-63,50.8-63c12.2,0,19.5,4.2,24.1,10.7h0.4l1.9-17.9l5.3-27.9h30.5l-26.7,132.9h-24.8v-12.6
			h-0.8c-8.8,9.5-19.9,14.9-30.2,14.9C1623.4-2050.2,1611.6-2063.6,1611.6-2087.2z M1674.6-2088.4l6.1-29.8c-2.7-5-8.6-7.3-12.6-7.3
			c-13,0-24.8,14.1-24.8,34.4c0,11.1,4.2,16,10.7,16C1660.1-2075,1668.1-2078.8,1674.6-2088.4z"/>
		<path d="M1746.4-2079.6c0-3.8,0.4-7.3,1.5-12.6l6.5-32.1h-24.1l4.6-22.5l25.6-1.1l10.3-28.6h24.8l-6.1,28.6h38.2l-4.6,23.7h-38.6
			l-6.5,30.5c-0.8,3.4-0.8,5-0.8,6.9c0,8.8,5.2,11.8,12.2,11.8c7.3,0,14.5-3.4,19.9-6.9l9.2,21.2c-8.6,5.9-23.3,10.5-38.6,10.5
			C1756.3-2050.2,1746.4-2061.7,1746.4-2079.6z"/>
	</g>
</g>
<path d="M87.5-2296.1h30.5l-9.5,46.6h30.5l9.2-46.6h30.5L154-2172h-30.5l10.3-50.8h-30.5l-9.9,50.8H62.7L87.5-2296.1z"/>
<path d="M346.4-2002.9H383l11.8,124.1h-32.1l-1.9-65.7c-0.4-11.8-0.6-23.1-0.8-35.5h-0.8c-4.6,11.6-9.2,23.5-14.1,35.5l-27.5,65.7
	h-33.6L346.4-2002.9z M320.8-1930h57.7l-5.3,22.9h-57.7L320.8-1930z"/>
<path d="M434.2-2002.9h30.5l10.9,59.2l4,27.5h0.8c1.1-13.4,3.4-37.2,5.2-46.2l8-40.5h28.8l-24.8,124.1h-29.8l-12-59.2l-4-27.5H451
	c-1.1,13.9-3.1,36.1-5.3,48.1l-7.4,38.6h-28.8L434.2-2002.9z"/>
<path d="M203.6-2002.9h30.5l10.9,59.2l4,27.5h0.8c1.1-13.4,3.4-37.2,5.2-46.2l8-40.5h28.8L267-1878.8h-29.8l-12-59.2l-4-27.5h-0.8
	c-1.1,13.9-3.1,36.1-5.3,48.1l-7.4,38.6h-28.8L203.6-2002.9z"/>
<path d="M183.8-1438.7h30.5l10.9-59.2l4-27.5h0.8c1.1,13.4,3.4,37.2,5.2,46.2l8,40.5H272l-24.8-124.1h-29.8l-12,59.2l-4,27.5h-0.8
	c-1.1-13.9-3.1-36.1-5.3-48.1l-7.4-38.6H159L183.8-1438.7z"/>
<path d="M285.5-1438.7h28.9l10.3-59.2l3.8-27.5h0.7c1.1,13.4,3.3,37.2,4.9,46.2l7.6,40.5h27.3l-23.5-124.1h-28.2l-11.4,59.2
	l-3.8,27.5h-0.7c-1.1-13.9-2.9-36.1-5.1-48.1l-7-38.6H262L285.5-1438.7z"/>
<path d="M549.1-2002.9h29c32.8,0,53.1,15.3,53.1,48.9c0,50.4-29,75.2-66.1,75.2h-40.9L549.1-2002.9z M564.4-1903.2
	c18.7,0,35.5-13,35.5-48.9c0-19.5-9.9-26.3-22.5-26.3h-2.7l-14.9,75.2H564.4z"/>
<path d="M687-1977.3h-36.3l5-25.6h103.1l-5,25.6h-36.3l-19.5,98.5h-30.5L687-1977.3z"/>
<text transform="matrix(1 0 0 1 2136.3354 -1878.8136)" style="font-family:'Futura-ExtraBold'; font-size:190.9086px;">’</text>
<rect x="0" class="st0" width="834.2" height="275.1"/>
<g>
	<path d="M127.6,157.1h-23.1v45.1c0,4.4-2.1,6.5-6.5,6.5H72.6c-4.4,0-6.5-2.1-6.5-6.5V80c0-4.4,2.1-6.5,6.5-6.5H98
		c4.4,0,6.5,2.1,6.5,6.5v43h23.1V80c0-4.4,2.1-6.5,6.5-6.5h25.2c4.4,0,6.5,2.1,6.5,6.5v122.2c0,4.4-2.1,6.5-6.5,6.5h-25.2
		c-4.4,0-6.5-2.1-6.5-6.5V157.1z"/>
	<path d="M288.5,73.5c5.5,0,7.6,2.5,8.6,6.5l29.8,121.2c1.1,4.6-0.8,7.4-5.2,7.4h-26.3c-4.6,0-6.5-2.1-7.3-6.1l-3.4-15.7H257
		l-3.2,15.7c-1,4-2.9,6.1-7.4,6.1h-26.2c-4.4,0-6.5-2.9-5.3-7.4l30-121.2c1-4,2.9-6.5,8.4-6.5H288.5z M280.1,154.6l-8.8-43.7h-0.8
		l-9.4,43.7H280.1z"/>
	<path d="M478.3,202.2c0,4.4-2.1,6.5-6.5,6.5h-23.1c-4.6,0-6.7-1.3-8.2-4.8L413,146.4v55.7c0,4.4-2.1,6.5-6.5,6.5h-24.1
		c-4.4,0-6.5-2.1-6.5-6.5V80c0-4.4,2.1-6.5,6.5-6.5h22.9c4.6,0,6.7,1.3,8.2,4.8l27.7,57.5V80c0-4.4,2.1-6.5,6.5-6.5h24.1
		c4.4,0,6.5,2.1,6.5,6.5V202.2z"/>
	<path d="M539.5,208.6c-4.4,0-6.5-2.1-6.5-6.5V80c0-4.4,2.1-6.5,6.5-6.5h37.2c39.3,0,58,17.2,58,67.6c0,50.2-18.3,67.6-57.7,67.6
		H539.5z M571.4,107.3v67.6h4.8c14.3,0,19.9-6.1,19.9-33.8c0-27.9-6.1-33.8-20.2-33.8H571.4z"/>
	<path d="M679.3,80c0-4.4,2.1-6.5,6.5-6.5h75.8c4.4,0,6.5,2.1,6.5,6.5v21.4c0,4.4-2.1,6.5-6.5,6.5h-18.7v94.3c0,4.4-2.1,6.5-6.5,6.5
		H711c-4.4,0-6.5-2.1-6.5-6.5v-94.3h-18.7c-4.4,0-6.5-2.1-6.5-6.5V80z"/>
</g>
<text transform="matrix(1 0 0 1 94.3665 -706.2047)" style="font-family:'HYPE'; font-size:168.1358px;">Handt</text>
<g>
	<path class="st0" d="M70.3,335.8v44.4h-7.8v-0.2L43,350v30.3h-7.8v-44.4H43H43l19.5,30v-30H70.3z"/>
	<path class="st0" d="M167.6,380.1L167.6,380.1l-7.8,0.1v-44.4h24.3v7.4h-16.5v9.8h16.5v7.8h-16.5v11.7h16.5v7.7H167.6z"/>
	<path class="st0" d="M275.1,380.1v-44.4h7.8v31l9.8-13.8l9.8,13.9v-31h7.8v44.4h-7.8l-9.7-13.8l-9.8,13.8H275.1z"/>
	<path class="st0" d="M432,335.7l-14.4,25v19.4h-7.8v-19.6l-14.4-24.9h9l9.2,15.8h0.3l9.2-15.8H432z"/>
	<path class="st0" d="M537.6,381.9c-3.2,0-6.2-0.6-9.2-1.9c-1.4-0.6-2.7-1.3-3.9-2.1c-1.2-0.8-2.4-1.8-3.5-2.9
		c-1.1-1.1-2.1-2.2-2.9-3.5c-0.8-1.2-1.5-2.6-2.1-3.9c-1.3-2.9-1.9-6-1.9-9.2c0-3.1,0.6-6.2,1.9-9.2c0.6-1.4,1.3-2.7,2.1-3.9
		c0.8-1.2,1.8-2.4,2.9-3.5c2.2-2.2,4.7-3.9,7.4-5c2.8-1.2,5.9-1.8,9.2-1.8c3.3,0,6.3,0.6,9.2,1.8c2.8,1.2,5.2,2.8,7.4,5
		s3.9,4.7,5,7.4c1.2,2.8,1.8,5.9,1.8,9.2s-0.6,6.3-1.8,9.2c-1.2,2.8-2.8,5.2-5,7.4c-1.1,1.1-2.2,2.1-3.5,2.9
		c-1.2,0.8-2.6,1.5-3.9,2.1C543.8,381.3,540.7,381.9,537.6,381.9z M537.6,342.8c-2.1,0-4.2,0.4-6.1,1.2c-1.9,0.8-3.6,1.9-5,3.4
		c-1.4,1.4-2.5,3.1-3.4,5c-0.8,1.9-1.2,3.9-1.2,6.1s0.4,4.2,1.2,6.1c0.8,1.9,1.9,3.6,3.4,5c1.4,1.4,3.1,2.5,5,3.4
		c1.9,0.8,4,1.2,6.1,1.2c2.1,0,4.2-0.4,6.1-1.2c1.9-0.8,3.6-1.9,5-3.4c1.4-1.4,2.5-3.1,3.4-5c0.8-1.9,1.2-4,1.2-6.1
		s-0.4-4.2-1.2-6.1c-0.8-1.9-1.9-3.6-3.4-5c-1.4-1.4-3.1-2.5-5-3.4C541.7,343.2,539.7,342.8,537.6,342.8z"/>
	<path class="st0" d="M665.9,361.5c-0.2,0.1-0.4,0.2-0.6,0.3c-0.2,0.1-0.4,0.2-0.6,0.3l11.6,18.1H667l-11.1-17.3h-2.5v17.3h-7.8
		v-44.4h19c2,0.7,3.8,1.7,5.3,3.2c1.2,1.3,2.2,2.7,2.8,4.3c0.7,1.6,1,3.3,1,5.1c0,1.7-0.3,3.4-0.9,5.2s-1.5,3.3-2.7,4.6
		C668.8,359.6,667.4,360.7,665.9,361.5z M660.5,355.1c0.9,0,1.6-0.2,2.3-0.7c0.7-0.5,1.1-0.9,1.4-1.3c0.6-0.7,1-1.4,1.3-2.2
		c0.3-0.8,0.5-1.7,0.5-2.5c0-0.8-0.1-1.5-0.4-2.2c-0.3-0.7-0.7-1.3-1.2-1.8c-0.5-0.5-1.1-0.9-1.8-1.2c-0.7-0.3-1.4-0.4-2.2-0.4h-7.1
		v12.3H660.5z"/>
	<path class="st0" d="M780.9,357.1l18.1,23h-9.9L776,363.4l-0.3,0.5v16.3h-7.8v-44.4h7.8v14.7l0.3,0.4l11.8-15.1h9.9L780.9,357.1z"
		/>
</g>
<text transform="matrix(1 0 0 1 -1016.7403 73.4871)" style="font-family:'HYPE'; font-size:57.5665px; letter-spacing:67;">NEWYORK</text>
</svg>
